<mxfile host="app.diagrams.net" modified="2023-03-09T06:18:21.144Z" agent="5.0 (X11; Ubuntu)" etag="kbeumJQer6DkaWEDbSSj" version="21.0.2" type="github">
  <diagram id="C5RBs43oDa-KdzZeNtuy" name="Page-1">
    <mxGraphModel dx="4412" dy="3157" grid="1" gridSize="10" guides="1" tooltips="1" connect="1" arrows="1" fold="1" page="1" pageScale="1" pageWidth="827" pageHeight="1169" background="none" math="0" shadow="0">
      <root>
        <mxCell id="WIyWlLk6GJQsqaUBKTNV-0" />
        <mxCell id="WIyWlLk6GJQsqaUBKTNV-1" parent="WIyWlLk6GJQsqaUBKTNV-0" />
        <mxCell id="2eaRCOAolLN9JBgcIaXe-118" value="&lt;font style=&quot;font-size: 25px;&quot;&gt;xmlrpc.server&lt;/font&gt;" style="shape=folder;fontStyle=1;spacingTop=10;tabWidth=40;tabHeight=14;tabPosition=left;html=1;verticalAlign=top;" parent="WIyWlLk6GJQsqaUBKTNV-1" vertex="1">
          <mxGeometry x="13" y="-1160" width="260" height="159" as="geometry" />
        </mxCell>
        <mxCell id="2eaRCOAolLN9JBgcIaXe-107" value="&lt;font style=&quot;font-size: 25px;&quot;&gt;Views&lt;/font&gt;" style="shape=folder;fontStyle=1;spacingTop=10;tabWidth=40;tabHeight=14;tabPosition=left;html=1;verticalAlign=top;" parent="WIyWlLk6GJQsqaUBKTNV-1" vertex="1">
          <mxGeometry x="390" y="-879.5" width="390" height="560" as="geometry" />
        </mxCell>
        <mxCell id="2eaRCOAolLN9JBgcIaXe-0" value="&lt;font style=&quot;font-size: 25px;&quot;&gt;Models&lt;/font&gt;" style="shape=folder;fontStyle=1;spacingTop=10;tabWidth=40;tabHeight=14;tabPosition=left;html=1;verticalAlign=top;horizontal=1;" parent="WIyWlLk6GJQsqaUBKTNV-1" vertex="1">
          <mxGeometry x="-780" y="247" width="1390" height="900" as="geometry" />
        </mxCell>
        <mxCell id="2eaRCOAolLN9JBgcIaXe-1" value="main_view" style="swimlane;fontStyle=1;align=center;verticalAlign=top;childLayout=stackLayout;horizontal=1;startSize=26;horizontalStack=0;resizeParent=1;resizeParentMax=0;resizeLast=0;collapsible=1;marginBottom=0;labelBackgroundColor=none;fontSize=17;" parent="WIyWlLk6GJQsqaUBKTNV-1" vertex="1">
          <mxGeometry x="490" y="-804.5" width="240" height="450" as="geometry" />
        </mxCell>
        <mxCell id="2eaRCOAolLN9JBgcIaXe-2" value="+ on_off_bt: QPushButton" style="text;strokeColor=none;fillColor=none;align=left;verticalAlign=top;spacingLeft=4;spacingRight=4;overflow=hidden;rotatable=0;points=[[0,0.5],[1,0.5]];portConstraint=eastwest;" parent="2eaRCOAolLN9JBgcIaXe-1" vertex="1">
          <mxGeometry y="26" width="240" height="26" as="geometry" />
        </mxCell>
        <mxCell id="2eaRCOAolLN9JBgcIaXe-5" value="+ on_off_sv: QPushButton" style="text;strokeColor=none;fillColor=none;align=left;verticalAlign=top;spacingLeft=4;spacingRight=4;overflow=hidden;rotatable=0;points=[[0,0.5],[1,0.5]];portConstraint=eastwest;" parent="2eaRCOAolLN9JBgcIaXe-1" vertex="1">
          <mxGeometry y="52" width="240" height="26" as="geometry" />
        </mxCell>
        <mxCell id="2eaRCOAolLN9JBgcIaXe-6" value="+ on_off_motor: QRadioButton" style="text;strokeColor=none;fillColor=none;align=left;verticalAlign=top;spacingLeft=4;spacingRight=4;overflow=hidden;rotatable=0;points=[[0,0.5],[1,0.5]];portConstraint=eastwest;" parent="2eaRCOAolLN9JBgcIaXe-1" vertex="1">
          <mxGeometry y="78" width="240" height="26" as="geometry" />
        </mxCell>
        <mxCell id="2eaRCOAolLN9JBgcIaXe-109" value="+ btn_avanzar: QPushButton" style="text;strokeColor=none;fillColor=none;align=left;verticalAlign=top;spacingLeft=4;spacingRight=4;overflow=hidden;rotatable=0;points=[[0,0.5],[1,0.5]];portConstraint=eastwest;" parent="2eaRCOAolLN9JBgcIaXe-1" vertex="1">
          <mxGeometry y="104" width="240" height="26" as="geometry" />
        </mxCell>
        <mxCell id="2eaRCOAolLN9JBgcIaXe-110" value="+ btn_retroceder: QPushButton" style="text;strokeColor=none;fillColor=none;align=left;verticalAlign=top;spacingLeft=4;spacingRight=4;overflow=hidden;rotatable=0;points=[[0,0.5],[1,0.5]];portConstraint=eastwest;" parent="2eaRCOAolLN9JBgcIaXe-1" vertex="1">
          <mxGeometry y="130" width="240" height="26" as="geometry" />
        </mxCell>
        <mxCell id="2eaRCOAolLN9JBgcIaXe-111" value="+ btn_derecha: QPushButton" style="text;strokeColor=none;fillColor=none;align=left;verticalAlign=top;spacingLeft=4;spacingRight=4;overflow=hidden;rotatable=0;points=[[0,0.5],[1,0.5]];portConstraint=eastwest;" parent="2eaRCOAolLN9JBgcIaXe-1" vertex="1">
          <mxGeometry y="156" width="240" height="26" as="geometry" />
        </mxCell>
        <mxCell id="2eaRCOAolLN9JBgcIaXe-113" value="+ btn_izquierda: QPushButton" style="text;strokeColor=none;fillColor=none;align=left;verticalAlign=top;spacingLeft=4;spacingRight=4;overflow=hidden;rotatable=0;points=[[0,0.5],[1,0.5]];portConstraint=eastwest;" parent="2eaRCOAolLN9JBgcIaXe-1" vertex="1">
          <mxGeometry y="182" width="240" height="26" as="geometry" />
        </mxCell>
        <mxCell id="2eaRCOAolLN9JBgcIaXe-112" value="+ btn_detener: QPushButton" style="text;strokeColor=none;fillColor=none;align=left;verticalAlign=top;spacingLeft=4;spacingRight=4;overflow=hidden;rotatable=0;points=[[0,0.5],[1,0.5]];portConstraint=eastwest;" parent="2eaRCOAolLN9JBgcIaXe-1" vertex="1">
          <mxGeometry y="208" width="240" height="26" as="geometry" />
        </mxCell>
        <mxCell id="2eaRCOAolLN9JBgcIaXe-7" value="+ r_log: QListWidget" style="text;strokeColor=none;fillColor=none;align=left;verticalAlign=top;spacingLeft=4;spacingRight=4;overflow=hidden;rotatable=0;points=[[0,0.5],[1,0.5]];portConstraint=eastwest;" parent="2eaRCOAolLN9JBgcIaXe-1" vertex="1">
          <mxGeometry y="234" width="240" height="26" as="geometry" />
        </mxCell>
        <mxCell id="2eaRCOAolLN9JBgcIaXe-115" value="+ bt_list: QComboBox" style="text;strokeColor=none;fillColor=none;align=left;verticalAlign=top;spacingLeft=4;spacingRight=4;overflow=hidden;rotatable=0;points=[[0,0.5],[1,0.5]];portConstraint=eastwest;" parent="2eaRCOAolLN9JBgcIaXe-1" vertex="1">
          <mxGeometry y="260" width="240" height="26" as="geometry" />
        </mxCell>
        <mxCell id="2eaRCOAolLN9JBgcIaXe-114" value="+ r_log: QListWidget" style="text;strokeColor=none;fillColor=none;align=left;verticalAlign=top;spacingLeft=4;spacingRight=4;overflow=hidden;rotatable=0;points=[[0,0.5],[1,0.5]];portConstraint=eastwest;" parent="2eaRCOAolLN9JBgcIaXe-1" vertex="1">
          <mxGeometry y="286" width="240" height="26" as="geometry" />
        </mxCell>
        <mxCell id="2eaRCOAolLN9JBgcIaXe-116" value="+ imagen: QLabel" style="text;strokeColor=none;fillColor=none;align=left;verticalAlign=top;spacingLeft=4;spacingRight=4;overflow=hidden;rotatable=0;points=[[0,0.5],[1,0.5]];portConstraint=eastwest;" parent="2eaRCOAolLN9JBgcIaXe-1" vertex="1">
          <mxGeometry y="312" width="240" height="26" as="geometry" />
        </mxCell>
        <mxCell id="2eaRCOAolLN9JBgcIaXe-3" value="" style="line;strokeWidth=1;fillColor=none;align=left;verticalAlign=middle;spacingTop=-1;spacingLeft=3;spacingRight=3;rotatable=0;labelPosition=right;points=[];portConstraint=eastwest;strokeColor=inherit;labelBackgroundColor=none;" parent="2eaRCOAolLN9JBgcIaXe-1" vertex="1">
          <mxGeometry y="338" width="240" height="8" as="geometry" />
        </mxCell>
        <mxCell id="2eaRCOAolLN9JBgcIaXe-4" value="+ showEvent(event): Void()" style="text;strokeColor=none;fillColor=none;align=left;verticalAlign=top;spacingLeft=4;spacingRight=4;overflow=hidden;rotatable=0;points=[[0,0.5],[1,0.5]];portConstraint=eastwest;" parent="2eaRCOAolLN9JBgcIaXe-1" vertex="1">
          <mxGeometry y="346" width="240" height="26" as="geometry" />
        </mxCell>
        <mxCell id="2eaRCOAolLN9JBgcIaXe-8" value="+ set_conectar_robot_bt_text(String): void" style="text;strokeColor=none;fillColor=none;align=left;verticalAlign=top;spacingLeft=4;spacingRight=4;overflow=hidden;rotatable=0;points=[[0,0.5],[1,0.5]];portConstraint=eastwest;" parent="2eaRCOAolLN9JBgcIaXe-1" vertex="1">
          <mxGeometry y="372" width="240" height="26" as="geometry" />
        </mxCell>
        <mxCell id="2eaRCOAolLN9JBgcIaXe-9" value="+ update_robot_status(Bool): void" style="text;strokeColor=none;fillColor=none;align=left;verticalAlign=top;spacingLeft=4;spacingRight=4;overflow=hidden;rotatable=0;points=[[0,0.5],[1,0.5]];portConstraint=eastwest;" parent="2eaRCOAolLN9JBgcIaXe-1" vertex="1">
          <mxGeometry y="398" width="240" height="26" as="geometry" />
        </mxCell>
        <mxCell id="2eaRCOAolLN9JBgcIaXe-11" value="+ add_rlog(String): void" style="text;strokeColor=none;fillColor=none;align=left;verticalAlign=top;spacingLeft=4;spacingRight=4;overflow=hidden;rotatable=0;points=[[0,0.5],[1,0.5]];portConstraint=eastwest;" parent="2eaRCOAolLN9JBgcIaXe-1" vertex="1">
          <mxGeometry y="424" width="240" height="26" as="geometry" />
        </mxCell>
        <mxCell id="2eaRCOAolLN9JBgcIaXe-12" value="Sensor_temp" style="swimlane;fontStyle=1;align=center;verticalAlign=top;childLayout=stackLayout;horizontal=1;startSize=26;horizontalStack=0;resizeParent=1;resizeParentMax=0;resizeLast=0;collapsible=1;marginBottom=0;labelBackgroundColor=none;fontSize=17;" parent="WIyWlLk6GJQsqaUBKTNV-1" vertex="1">
          <mxGeometry x="-750" y="673" width="160" height="164" as="geometry" />
        </mxCell>
        <mxCell id="2eaRCOAolLN9JBgcIaXe-13" value="+ sensor_id: int" style="text;strokeColor=none;fillColor=none;align=left;verticalAlign=top;spacingLeft=4;spacingRight=4;overflow=hidden;rotatable=0;points=[[0,0.5],[1,0.5]];portConstraint=eastwest;" parent="2eaRCOAolLN9JBgcIaXe-12" vertex="1">
          <mxGeometry y="26" width="160" height="26" as="geometry" />
        </mxCell>
        <mxCell id="2eaRCOAolLN9JBgcIaXe-14" value="- temperatura: float" style="text;strokeColor=none;fillColor=none;align=left;verticalAlign=top;spacingLeft=4;spacingRight=4;overflow=hidden;rotatable=0;points=[[0,0.5],[1,0.5]];portConstraint=eastwest;" parent="2eaRCOAolLN9JBgcIaXe-12" vertex="1">
          <mxGeometry y="52" width="160" height="26" as="geometry" />
        </mxCell>
        <mxCell id="2eaRCOAolLN9JBgcIaXe-15" value="+ muestras: diccionario" style="text;strokeColor=none;fillColor=none;align=left;verticalAlign=top;spacingLeft=4;spacingRight=4;overflow=hidden;rotatable=0;points=[[0,0.5],[1,0.5]];portConstraint=eastwest;" parent="2eaRCOAolLN9JBgcIaXe-12" vertex="1">
          <mxGeometry y="78" width="160" height="26" as="geometry" />
        </mxCell>
        <mxCell id="2eaRCOAolLN9JBgcIaXe-17" value="" style="line;strokeWidth=1;fillColor=none;align=left;verticalAlign=middle;spacingTop=-1;spacingLeft=3;spacingRight=3;rotatable=0;labelPosition=right;points=[];portConstraint=eastwest;strokeColor=inherit;labelBackgroundColor=none;" parent="2eaRCOAolLN9JBgcIaXe-12" vertex="1">
          <mxGeometry y="104" width="160" height="8" as="geometry" />
        </mxCell>
        <mxCell id="2eaRCOAolLN9JBgcIaXe-18" value="+ leer_temperatura(): float" style="text;strokeColor=none;fillColor=none;align=left;verticalAlign=top;spacingLeft=4;spacingRight=4;overflow=hidden;rotatable=0;points=[[0,0.5],[1,0.5]];portConstraint=eastwest;" parent="2eaRCOAolLN9JBgcIaXe-12" vertex="1">
          <mxGeometry y="112" width="160" height="26" as="geometry" />
        </mxCell>
        <mxCell id="2eaRCOAolLN9JBgcIaXe-19" value="+ tomar_muestra(): void" style="text;strokeColor=none;fillColor=none;align=left;verticalAlign=top;spacingLeft=4;spacingRight=4;overflow=hidden;rotatable=0;points=[[0,0.5],[1,0.5]];portConstraint=eastwest;" parent="2eaRCOAolLN9JBgcIaXe-12" vertex="1">
          <mxGeometry y="138" width="160" height="26" as="geometry" />
        </mxCell>
        <mxCell id="2eaRCOAolLN9JBgcIaXe-23" value="Motor" style="swimlane;fontStyle=1;align=center;verticalAlign=top;childLayout=stackLayout;horizontal=1;startSize=26;horizontalStack=0;resizeParent=1;resizeParentMax=0;resizeLast=0;collapsible=1;marginBottom=0;labelBackgroundColor=none;fontSize=18;" parent="WIyWlLk6GJQsqaUBKTNV-1" vertex="1">
          <mxGeometry x="-750" y="317" width="210" height="242" as="geometry" />
        </mxCell>
        <mxCell id="2eaRCOAolLN9JBgcIaXe-24" value="+ modelo: String" style="text;strokeColor=none;fillColor=none;align=left;verticalAlign=top;spacingLeft=4;spacingRight=4;overflow=hidden;rotatable=0;points=[[0,0.5],[1,0.5]];portConstraint=eastwest;" parent="2eaRCOAolLN9JBgcIaXe-23" vertex="1">
          <mxGeometry y="26" width="210" height="26" as="geometry" />
        </mxCell>
        <mxCell id="2eaRCOAolLN9JBgcIaXe-25" value="+ tipo: String" style="text;strokeColor=none;fillColor=none;align=left;verticalAlign=top;spacingLeft=4;spacingRight=4;overflow=hidden;rotatable=0;points=[[0,0.5],[1,0.5]];portConstraint=eastwest;" parent="2eaRCOAolLN9JBgcIaXe-23" vertex="1">
          <mxGeometry y="52" width="210" height="26" as="geometry" />
        </mxCell>
        <mxCell id="2eaRCOAolLN9JBgcIaXe-30" value="+ estado: String" style="text;strokeColor=none;fillColor=none;align=left;verticalAlign=top;spacingLeft=4;spacingRight=4;overflow=hidden;rotatable=0;points=[[0,0.5],[1,0.5]];portConstraint=eastwest;" parent="2eaRCOAolLN9JBgcIaXe-23" vertex="1">
          <mxGeometry y="78" width="210" height="26" as="geometry" />
        </mxCell>
        <mxCell id="2eaRCOAolLN9JBgcIaXe-31" value="+ habilitado: Bool" style="text;strokeColor=none;fillColor=none;align=left;verticalAlign=top;spacingLeft=4;spacingRight=4;overflow=hidden;rotatable=0;points=[[0,0.5],[1,0.5]];portConstraint=eastwest;" parent="2eaRCOAolLN9JBgcIaXe-23" vertex="1">
          <mxGeometry y="104" width="210" height="26" as="geometry" />
        </mxCell>
        <mxCell id="2eaRCOAolLN9JBgcIaXe-26" value="- descripción: String" style="text;strokeColor=none;fillColor=none;align=left;verticalAlign=top;spacingLeft=4;spacingRight=4;overflow=hidden;rotatable=0;points=[[0,0.5],[1,0.5]];portConstraint=eastwest;" parent="2eaRCOAolLN9JBgcIaXe-23" vertex="1">
          <mxGeometry y="130" width="210" height="26" as="geometry" />
        </mxCell>
        <mxCell id="2eaRCOAolLN9JBgcIaXe-27" value="" style="line;strokeWidth=1;fillColor=none;align=left;verticalAlign=middle;spacingTop=-1;spacingLeft=3;spacingRight=3;rotatable=0;labelPosition=right;points=[];portConstraint=eastwest;strokeColor=inherit;labelBackgroundColor=none;" parent="2eaRCOAolLN9JBgcIaXe-23" vertex="1">
          <mxGeometry y="156" width="210" height="8" as="geometry" />
        </mxCell>
        <mxCell id="2eaRCOAolLN9JBgcIaXe-28" value="+ cambiar_estado(): void" style="text;strokeColor=none;fillColor=none;align=left;verticalAlign=top;spacingLeft=4;spacingRight=4;overflow=hidden;rotatable=0;points=[[0,0.5],[1,0.5]];portConstraint=eastwest;" parent="2eaRCOAolLN9JBgcIaXe-23" vertex="1">
          <mxGeometry y="164" width="210" height="26" as="geometry" />
        </mxCell>
        <mxCell id="2eaRCOAolLN9JBgcIaXe-29" value="+ set_descripcion(String): void" style="text;strokeColor=none;fillColor=none;align=left;verticalAlign=top;spacingLeft=4;spacingRight=4;overflow=hidden;rotatable=0;points=[[0,0.5],[1,0.5]];portConstraint=eastwest;" parent="2eaRCOAolLN9JBgcIaXe-23" vertex="1">
          <mxGeometry y="190" width="210" height="26" as="geometry" />
        </mxCell>
        <mxCell id="2eaRCOAolLN9JBgcIaXe-32" value="+ cambiar_habilitacion(Bool): void" style="text;strokeColor=none;fillColor=none;align=left;verticalAlign=top;spacingLeft=4;spacingRight=4;overflow=hidden;rotatable=0;points=[[0,0.5],[1,0.5]];portConstraint=eastwest;" parent="2eaRCOAolLN9JBgcIaXe-23" vertex="1">
          <mxGeometry y="216" width="210" height="26" as="geometry" />
        </mxCell>
        <mxCell id="2eaRCOAolLN9JBgcIaXe-33" value="PCB_mother" style="swimlane;fontStyle=1;align=center;verticalAlign=top;childLayout=stackLayout;horizontal=1;startSize=26;horizontalStack=0;resizeParent=1;resizeParentMax=0;resizeLast=0;collapsible=1;marginBottom=0;labelBackgroundColor=none;fontSize=17;" parent="WIyWlLk6GJQsqaUBKTNV-1" vertex="1">
          <mxGeometry x="-750" y="867" width="210" height="190" as="geometry" />
        </mxCell>
        <mxCell id="2eaRCOAolLN9JBgcIaXe-35" value="-  version: String" style="text;strokeColor=none;fillColor=none;align=left;verticalAlign=top;spacingLeft=4;spacingRight=4;overflow=hidden;rotatable=0;points=[[0,0.5],[1,0.5]];portConstraint=eastwest;" parent="2eaRCOAolLN9JBgcIaXe-33" vertex="1">
          <mxGeometry y="26" width="210" height="26" as="geometry" />
        </mxCell>
        <mxCell id="2eaRCOAolLN9JBgcIaXe-36" value="+ revision: String" style="text;strokeColor=none;fillColor=none;align=left;verticalAlign=top;spacingLeft=4;spacingRight=4;overflow=hidden;rotatable=0;points=[[0,0.5],[1,0.5]];portConstraint=eastwest;" parent="2eaRCOAolLN9JBgcIaXe-33" vertex="1">
          <mxGeometry y="52" width="210" height="26" as="geometry" />
        </mxCell>
        <mxCell id="2eaRCOAolLN9JBgcIaXe-37" value="+ contacto_creador: String" style="text;strokeColor=none;fillColor=none;align=left;verticalAlign=top;spacingLeft=4;spacingRight=4;overflow=hidden;rotatable=0;points=[[0,0.5],[1,0.5]];portConstraint=eastwest;" parent="2eaRCOAolLN9JBgcIaXe-33" vertex="1">
          <mxGeometry y="78" width="210" height="26" as="geometry" />
        </mxCell>
        <mxCell id="2eaRCOAolLN9JBgcIaXe-39" value="" style="line;strokeWidth=1;fillColor=none;align=left;verticalAlign=middle;spacingTop=-1;spacingLeft=3;spacingRight=3;rotatable=0;labelPosition=right;points=[];portConstraint=eastwest;strokeColor=inherit;labelBackgroundColor=none;" parent="2eaRCOAolLN9JBgcIaXe-33" vertex="1">
          <mxGeometry y="104" width="210" height="8" as="geometry" />
        </mxCell>
        <mxCell id="2eaRCOAolLN9JBgcIaXe-40" value="+ cambiar_version(String): void" style="text;strokeColor=none;fillColor=none;align=left;verticalAlign=top;spacingLeft=4;spacingRight=4;overflow=hidden;rotatable=0;points=[[0,0.5],[1,0.5]];portConstraint=eastwest;" parent="2eaRCOAolLN9JBgcIaXe-33" vertex="1">
          <mxGeometry y="112" width="210" height="26" as="geometry" />
        </mxCell>
        <mxCell id="2eaRCOAolLN9JBgcIaXe-41" value="+ cambiar_revision(String): void" style="text;strokeColor=none;fillColor=none;align=left;verticalAlign=top;spacingLeft=4;spacingRight=4;overflow=hidden;rotatable=0;points=[[0,0.5],[1,0.5]];portConstraint=eastwest;" parent="2eaRCOAolLN9JBgcIaXe-33" vertex="1">
          <mxGeometry y="138" width="210" height="26" as="geometry" />
        </mxCell>
        <mxCell id="2eaRCOAolLN9JBgcIaXe-42" value="+ cambiar_contacto(String): void" style="text;strokeColor=none;fillColor=none;align=left;verticalAlign=top;spacingLeft=4;spacingRight=4;overflow=hidden;rotatable=0;points=[[0,0.5],[1,0.5]];portConstraint=eastwest;" parent="2eaRCOAolLN9JBgcIaXe-33" vertex="1">
          <mxGeometry y="164" width="210" height="26" as="geometry" />
        </mxCell>
        <mxCell id="2eaRCOAolLN9JBgcIaXe-43" value="BlueRobot" style="swimlane;fontStyle=1;align=center;verticalAlign=top;childLayout=stackLayout;horizontal=1;startSize=26;horizontalStack=0;resizeParent=1;resizeParentMax=0;resizeLast=0;collapsible=1;marginBottom=0;labelBackgroundColor=none;fontSize=17;" parent="WIyWlLk6GJQsqaUBKTNV-1" vertex="1">
          <mxGeometry x="-410" y="327" width="240" height="242" as="geometry" />
        </mxCell>
        <mxCell id="2eaRCOAolLN9JBgcIaXe-44" value="+ serial: Serial" style="text;strokeColor=none;fillColor=none;align=left;verticalAlign=top;spacingLeft=4;spacingRight=4;overflow=hidden;rotatable=0;points=[[0,0.5],[1,0.5]];portConstraint=eastwest;" parent="2eaRCOAolLN9JBgcIaXe-43" vertex="1">
          <mxGeometry y="26" width="240" height="26" as="geometry" />
        </mxCell>
        <mxCell id="2eaRCOAolLN9JBgcIaXe-45" value="-  port: String" style="text;strokeColor=none;fillColor=none;align=left;verticalAlign=top;spacingLeft=4;spacingRight=4;overflow=hidden;rotatable=0;points=[[0,0.5],[1,0.5]];portConstraint=eastwest;" parent="2eaRCOAolLN9JBgcIaXe-43" vertex="1">
          <mxGeometry y="52" width="240" height="26" as="geometry" />
        </mxCell>
        <mxCell id="2eaRCOAolLN9JBgcIaXe-46" value="-  baudrate: Int" style="text;strokeColor=none;fillColor=none;align=left;verticalAlign=top;spacingLeft=4;spacingRight=4;overflow=hidden;rotatable=0;points=[[0,0.5],[1,0.5]];portConstraint=eastwest;" parent="2eaRCOAolLN9JBgcIaXe-43" vertex="1">
          <mxGeometry y="78" width="240" height="26" as="geometry" />
        </mxCell>
        <mxCell id="2eaRCOAolLN9JBgcIaXe-48" value="" style="line;strokeWidth=1;fillColor=none;align=left;verticalAlign=middle;spacingTop=-1;spacingLeft=3;spacingRight=3;rotatable=0;labelPosition=right;points=[];portConstraint=eastwest;strokeColor=inherit;labelBackgroundColor=none;" parent="2eaRCOAolLN9JBgcIaXe-43" vertex="1">
          <mxGeometry y="104" width="240" height="8" as="geometry" />
        </mxCell>
        <mxCell id="2eaRCOAolLN9JBgcIaXe-49" value="+ changePort(String): void" style="text;strokeColor=none;fillColor=none;align=left;verticalAlign=top;spacingLeft=4;spacingRight=4;overflow=hidden;rotatable=0;points=[[0,0.5],[1,0.5]];portConstraint=eastwest;" parent="2eaRCOAolLN9JBgcIaXe-43" vertex="1">
          <mxGeometry y="112" width="240" height="26" as="geometry" />
        </mxCell>
        <mxCell id="2eaRCOAolLN9JBgcIaXe-50" value="+ changeBaudrate(Int): void" style="text;strokeColor=none;fillColor=none;align=left;verticalAlign=top;spacingLeft=4;spacingRight=4;overflow=hidden;rotatable=0;points=[[0,0.5],[1,0.5]];portConstraint=eastwest;" parent="2eaRCOAolLN9JBgcIaXe-43" vertex="1">
          <mxGeometry y="138" width="240" height="26" as="geometry" />
        </mxCell>
        <mxCell id="2eaRCOAolLN9JBgcIaXe-51" value="+ connect(): void" style="text;strokeColor=none;fillColor=none;align=left;verticalAlign=top;spacingLeft=4;spacingRight=4;overflow=hidden;rotatable=0;points=[[0,0.5],[1,0.5]];portConstraint=eastwest;" parent="2eaRCOAolLN9JBgcIaXe-43" vertex="1">
          <mxGeometry y="164" width="240" height="26" as="geometry" />
        </mxCell>
        <mxCell id="2eaRCOAolLN9JBgcIaXe-52" value="+ disconnect(): void" style="text;strokeColor=none;fillColor=none;align=left;verticalAlign=top;spacingLeft=4;spacingRight=4;overflow=hidden;rotatable=0;points=[[0,0.5],[1,0.5]];portConstraint=eastwest;" parent="2eaRCOAolLN9JBgcIaXe-43" vertex="1">
          <mxGeometry y="190" width="240" height="26" as="geometry" />
        </mxCell>
        <mxCell id="2eaRCOAolLN9JBgcIaXe-53" value="+ send(): void" style="text;strokeColor=none;fillColor=none;align=left;verticalAlign=top;spacingLeft=4;spacingRight=4;overflow=hidden;rotatable=0;points=[[0,0.5],[1,0.5]];portConstraint=eastwest;" parent="2eaRCOAolLN9JBgcIaXe-43" vertex="1">
          <mxGeometry y="216" width="240" height="26" as="geometry" />
        </mxCell>
        <mxCell id="2eaRCOAolLN9JBgcIaXe-54" value="&lt;font style=&quot;font-size: 25px;&quot;&gt;Pybluez&lt;/font&gt;" style="shape=folder;fontStyle=1;spacingTop=10;tabWidth=40;tabHeight=14;tabPosition=left;html=1;verticalAlign=top;" parent="WIyWlLk6GJQsqaUBKTNV-1" vertex="1">
          <mxGeometry x="42" y="151" width="160" height="80" as="geometry" />
        </mxCell>
        <mxCell id="2eaRCOAolLN9JBgcIaXe-62" value="&lt;font style=&quot;font-size: 25px;&quot;&gt;time&lt;/font&gt;" style="shape=folder;fontStyle=1;spacingTop=10;tabWidth=40;tabHeight=14;tabPosition=left;html=1;verticalAlign=top;" parent="WIyWlLk6GJQsqaUBKTNV-1" vertex="1">
          <mxGeometry x="-510" y="110" width="170" height="91" as="geometry" />
        </mxCell>
        <mxCell id="2eaRCOAolLN9JBgcIaXe-73" value="Robot" style="swimlane;fontStyle=1;align=center;verticalAlign=top;childLayout=stackLayout;horizontal=1;startSize=26;horizontalStack=0;resizeParent=1;resizeParentMax=0;resizeLast=0;collapsible=1;marginBottom=0;labelBackgroundColor=none;fontSize=17;" parent="WIyWlLk6GJQsqaUBKTNV-1" vertex="1">
          <mxGeometry x="-110" y="377" width="320" height="606" as="geometry">
            <mxRectangle x="660" y="120" width="70" height="30" as="alternateBounds" />
          </mxGeometry>
        </mxCell>
        <mxCell id="2eaRCOAolLN9JBgcIaXe-74" value="+ voltaje_motor: String" style="text;strokeColor=none;fillColor=none;align=left;verticalAlign=top;spacingLeft=4;spacingRight=4;overflow=hidden;rotatable=0;points=[[0,0.5],[1,0.5]];portConstraint=eastwest;" parent="2eaRCOAolLN9JBgcIaXe-73" vertex="1">
          <mxGeometry y="26" width="320" height="26" as="geometry" />
        </mxCell>
        <mxCell id="2eaRCOAolLN9JBgcIaXe-83" value="+ direccion: String" style="text;strokeColor=none;fillColor=none;align=left;verticalAlign=top;spacingLeft=4;spacingRight=4;overflow=hidden;rotatable=0;points=[[0,0.5],[1,0.5]];portConstraint=eastwest;" parent="2eaRCOAolLN9JBgcIaXe-73" vertex="1">
          <mxGeometry y="52" width="320" height="26" as="geometry" />
        </mxCell>
        <mxCell id="2eaRCOAolLN9JBgcIaXe-84" value="+ velocidad: Int" style="text;strokeColor=none;fillColor=none;align=left;verticalAlign=top;spacingLeft=4;spacingRight=4;overflow=hidden;rotatable=0;points=[[0,0.5],[1,0.5]];portConstraint=eastwest;" parent="2eaRCOAolLN9JBgcIaXe-73" vertex="1">
          <mxGeometry y="78" width="320" height="26" as="geometry" />
        </mxCell>
        <mxCell id="2eaRCOAolLN9JBgcIaXe-85" value="+ estado_bt: Bool" style="text;strokeColor=none;fillColor=none;align=left;verticalAlign=top;spacingLeft=4;spacingRight=4;overflow=hidden;rotatable=0;points=[[0,0.5],[1,0.5]];portConstraint=eastwest;" parent="2eaRCOAolLN9JBgcIaXe-73" vertex="1">
          <mxGeometry y="104" width="320" height="26" as="geometry" />
        </mxCell>
        <mxCell id="2eaRCOAolLN9JBgcIaXe-86" value="+ cantidad_celdas: Int" style="text;strokeColor=none;fillColor=none;align=left;verticalAlign=top;spacingLeft=4;spacingRight=4;overflow=hidden;rotatable=0;points=[[0,0.5],[1,0.5]];portConstraint=eastwest;" parent="2eaRCOAolLN9JBgcIaXe-73" vertex="1">
          <mxGeometry y="130" width="320" height="26" as="geometry" />
        </mxCell>
        <mxCell id="2eaRCOAolLN9JBgcIaXe-87" value="+ motoresActivados: Bool" style="text;strokeColor=none;fillColor=none;align=left;verticalAlign=top;spacingLeft=4;spacingRight=4;overflow=hidden;rotatable=0;points=[[0,0.5],[1,0.5]];portConstraint=eastwest;" parent="2eaRCOAolLN9JBgcIaXe-73" vertex="1">
          <mxGeometry y="156" width="320" height="26" as="geometry" />
        </mxCell>
        <mxCell id="2eaRCOAolLN9JBgcIaXe-88" value="+ pcb: PCB_mother" style="text;strokeColor=none;fillColor=none;align=left;verticalAlign=top;spacingLeft=4;spacingRight=4;overflow=hidden;rotatable=0;points=[[0,0.5],[1,0.5]];portConstraint=eastwest;" parent="2eaRCOAolLN9JBgcIaXe-73" vertex="1">
          <mxGeometry y="182" width="320" height="26" as="geometry" />
        </mxCell>
        <mxCell id="2eaRCOAolLN9JBgcIaXe-89" value="+ motor_izquierdo: Motor" style="text;strokeColor=none;fillColor=none;align=left;verticalAlign=top;spacingLeft=4;spacingRight=4;overflow=hidden;rotatable=0;points=[[0,0.5],[1,0.5]];portConstraint=eastwest;" parent="2eaRCOAolLN9JBgcIaXe-73" vertex="1">
          <mxGeometry y="208" width="320" height="26" as="geometry" />
        </mxCell>
        <mxCell id="2eaRCOAolLN9JBgcIaXe-93" value="+ motor_derecho: Motor" style="text;strokeColor=none;fillColor=none;align=left;verticalAlign=top;spacingLeft=4;spacingRight=4;overflow=hidden;rotatable=0;points=[[0,0.5],[1,0.5]];portConstraint=eastwest;" parent="2eaRCOAolLN9JBgcIaXe-73" vertex="1">
          <mxGeometry y="234" width="320" height="26" as="geometry" />
        </mxCell>
        <mxCell id="2eaRCOAolLN9JBgcIaXe-91" value="+ sensor_baterias: Sensor_temp" style="text;strokeColor=none;fillColor=none;align=left;verticalAlign=top;spacingLeft=4;spacingRight=4;overflow=hidden;rotatable=0;points=[[0,0.5],[1,0.5]];portConstraint=eastwest;" parent="2eaRCOAolLN9JBgcIaXe-73" vertex="1">
          <mxGeometry y="260" width="320" height="26" as="geometry" />
        </mxCell>
        <mxCell id="2eaRCOAolLN9JBgcIaXe-90" value="+ bluetooth: BluerRobot" style="text;strokeColor=none;fillColor=none;align=left;verticalAlign=top;spacingLeft=4;spacingRight=4;overflow=hidden;rotatable=0;points=[[0,0.5],[1,0.5]];portConstraint=eastwest;" parent="2eaRCOAolLN9JBgcIaXe-73" vertex="1">
          <mxGeometry y="286" width="320" height="26" as="geometry" />
        </mxCell>
        <mxCell id="2eaRCOAolLN9JBgcIaXe-77" value="" style="line;strokeWidth=1;fillColor=none;align=left;verticalAlign=middle;spacingTop=-1;spacingLeft=3;spacingRight=3;rotatable=0;labelPosition=right;points=[];portConstraint=eastwest;strokeColor=inherit;labelBackgroundColor=none;" parent="2eaRCOAolLN9JBgcIaXe-73" vertex="1">
          <mxGeometry y="312" width="320" height="8" as="geometry" />
        </mxCell>
        <mxCell id="2eaRCOAolLN9JBgcIaXe-78" value="+ conectar_bluetooth(String): void" style="text;strokeColor=none;fillColor=none;align=left;verticalAlign=top;spacingLeft=4;spacingRight=4;overflow=hidden;rotatable=0;points=[[0,0.5],[1,0.5]];portConstraint=eastwest;" parent="2eaRCOAolLN9JBgcIaXe-73" vertex="1">
          <mxGeometry y="320" width="320" height="26" as="geometry" />
        </mxCell>
        <mxCell id="2eaRCOAolLN9JBgcIaXe-79" value="+ cambiar_estado_bt(Int): void" style="text;strokeColor=none;fillColor=none;align=left;verticalAlign=top;spacingLeft=4;spacingRight=4;overflow=hidden;rotatable=0;points=[[0,0.5],[1,0.5]];portConstraint=eastwest;" parent="2eaRCOAolLN9JBgcIaXe-73" vertex="1">
          <mxGeometry y="346" width="320" height="26" as="geometry" />
        </mxCell>
        <mxCell id="2eaRCOAolLN9JBgcIaXe-80" value="+ habilitar_motores(): void" style="text;strokeColor=none;fillColor=none;align=left;verticalAlign=top;spacingLeft=4;spacingRight=4;overflow=hidden;rotatable=0;points=[[0,0.5],[1,0.5]];portConstraint=eastwest;" parent="2eaRCOAolLN9JBgcIaXe-73" vertex="1">
          <mxGeometry y="372" width="320" height="26" as="geometry" />
        </mxCell>
        <mxCell id="2eaRCOAolLN9JBgcIaXe-94" value="+ deshabilitar_motores(): void" style="text;strokeColor=none;fillColor=none;align=left;verticalAlign=top;spacingLeft=4;spacingRight=4;overflow=hidden;rotatable=0;points=[[0,0.5],[1,0.5]];portConstraint=eastwest;" parent="2eaRCOAolLN9JBgcIaXe-73" vertex="1">
          <mxGeometry y="398" width="320" height="26" as="geometry" />
        </mxCell>
        <mxCell id="2eaRCOAolLN9JBgcIaXe-96" value="+ mover_adelante(): void" style="text;strokeColor=none;fillColor=none;align=left;verticalAlign=top;spacingLeft=4;spacingRight=4;overflow=hidden;rotatable=0;points=[[0,0.5],[1,0.5]];portConstraint=eastwest;" parent="2eaRCOAolLN9JBgcIaXe-73" vertex="1">
          <mxGeometry y="424" width="320" height="26" as="geometry" />
        </mxCell>
        <mxCell id="2eaRCOAolLN9JBgcIaXe-98" value="+ mover_atras(): void" style="text;strokeColor=none;fillColor=none;align=left;verticalAlign=top;spacingLeft=4;spacingRight=4;overflow=hidden;rotatable=0;points=[[0,0.5],[1,0.5]];portConstraint=eastwest;" parent="2eaRCOAolLN9JBgcIaXe-73" vertex="1">
          <mxGeometry y="450" width="320" height="26" as="geometry" />
        </mxCell>
        <mxCell id="2eaRCOAolLN9JBgcIaXe-99" value="+ mover_derecha(): void" style="text;strokeColor=none;fillColor=none;align=left;verticalAlign=top;spacingLeft=4;spacingRight=4;overflow=hidden;rotatable=0;points=[[0,0.5],[1,0.5]];portConstraint=eastwest;" parent="2eaRCOAolLN9JBgcIaXe-73" vertex="1">
          <mxGeometry y="476" width="320" height="26" as="geometry" />
        </mxCell>
        <mxCell id="2eaRCOAolLN9JBgcIaXe-101" value="+ mover_izquierda(): void" style="text;strokeColor=none;fillColor=none;align=left;verticalAlign=top;spacingLeft=4;spacingRight=4;overflow=hidden;rotatable=0;points=[[0,0.5],[1,0.5]];portConstraint=eastwest;" parent="2eaRCOAolLN9JBgcIaXe-73" vertex="1">
          <mxGeometry y="502" width="320" height="26" as="geometry" />
        </mxCell>
        <mxCell id="2eaRCOAolLN9JBgcIaXe-100" value="+ detener_movimiento(): void" style="text;strokeColor=none;fillColor=none;align=left;verticalAlign=top;spacingLeft=4;spacingRight=4;overflow=hidden;rotatable=0;points=[[0,0.5],[1,0.5]];portConstraint=eastwest;" parent="2eaRCOAolLN9JBgcIaXe-73" vertex="1">
          <mxGeometry y="528" width="320" height="26" as="geometry" />
        </mxCell>
        <mxCell id="2eaRCOAolLN9JBgcIaXe-97" value="+ actualizar_robot(Byte, String, Int, String, String): void" style="text;strokeColor=none;fillColor=none;align=left;verticalAlign=top;spacingLeft=4;spacingRight=4;overflow=hidden;rotatable=0;points=[[0,0.5],[1,0.5]];portConstraint=eastwest;" parent="2eaRCOAolLN9JBgcIaXe-73" vertex="1">
          <mxGeometry y="554" width="320" height="26" as="geometry" />
        </mxCell>
        <mxCell id="2eaRCOAolLN9JBgcIaXe-95" value="+ cambiarEstadoDeMotor(Bool): void" style="text;strokeColor=none;fillColor=none;align=left;verticalAlign=top;spacingLeft=4;spacingRight=4;overflow=hidden;rotatable=0;points=[[0,0.5],[1,0.5]];portConstraint=eastwest;" parent="2eaRCOAolLN9JBgcIaXe-73" vertex="1">
          <mxGeometry y="580" width="320" height="26" as="geometry" />
        </mxCell>
        <mxCell id="2eaRCOAolLN9JBgcIaXe-108" value="&lt;font style=&quot;font-size: 25px;&quot;&gt;Controllers&lt;/font&gt;" style="shape=folder;fontStyle=1;spacingTop=10;tabWidth=40;tabHeight=14;tabPosition=left;html=1;verticalAlign=top;" parent="WIyWlLk6GJQsqaUBKTNV-1" vertex="1">
          <mxGeometry x="-773" y="-916.5" width="1113" height="1006.5" as="geometry" />
        </mxCell>
        <mxCell id="2eaRCOAolLN9JBgcIaXe-119" value="SimpleXMLRPCServer" style="swimlane;fontStyle=1;align=center;verticalAlign=top;childLayout=stackLayout;horizontal=1;startSize=26;horizontalStack=0;resizeParent=1;resizeParentMax=0;resizeLast=0;collapsible=1;marginBottom=0;labelBackgroundColor=none;fontSize=17;" parent="WIyWlLk6GJQsqaUBKTNV-1" vertex="1">
          <mxGeometry x="42" y="-1095" width="200" height="48.5" as="geometry" />
        </mxCell>
        <mxCell id="2eaRCOAolLN9JBgcIaXe-122" value="&lt;font style=&quot;font-size: 25px;&quot;&gt;PyQT5&lt;/font&gt;" style="shape=folder;fontStyle=1;spacingTop=10;tabWidth=40;tabHeight=14;tabPosition=left;html=1;verticalAlign=top;" parent="WIyWlLk6GJQsqaUBKTNV-1" vertex="1">
          <mxGeometry x="-827" y="-1160" width="750" height="159" as="geometry" />
        </mxCell>
        <mxCell id="2eaRCOAolLN9JBgcIaXe-123" value="QObject" style="swimlane;fontStyle=1;align=center;verticalAlign=top;childLayout=stackLayout;horizontal=1;startSize=26;horizontalStack=0;resizeParent=1;resizeParentMax=0;resizeLast=0;collapsible=1;marginBottom=0;labelBackgroundColor=none;fontSize=17;" parent="WIyWlLk6GJQsqaUBKTNV-1" vertex="1">
          <mxGeometry x="-807" y="-1110.5" width="160" height="34" as="geometry" />
        </mxCell>
        <mxCell id="2eaRCOAolLN9JBgcIaXe-126" value="mainController" style="swimlane;fontStyle=1;align=center;verticalAlign=top;childLayout=stackLayout;horizontal=1;startSize=26;horizontalStack=0;resizeParent=1;resizeParentMax=0;resizeLast=0;collapsible=1;marginBottom=0;labelBackgroundColor=none;fontSize=17;" parent="WIyWlLk6GJQsqaUBKTNV-1" vertex="1">
          <mxGeometry x="-767" y="-856.5" width="257" height="528" as="geometry" />
        </mxCell>
        <mxCell id="2eaRCOAolLN9JBgcIaXe-127" value="+ view: MainView" style="text;strokeColor=none;fillColor=none;align=left;verticalAlign=top;spacingLeft=4;spacingRight=4;overflow=hidden;rotatable=0;points=[[0,0.5],[1,0.5]];portConstraint=eastwest;" parent="2eaRCOAolLN9JBgcIaXe-126" vertex="1">
          <mxGeometry y="26" width="257" height="26" as="geometry" />
        </mxCell>
        <mxCell id="2eaRCOAolLN9JBgcIaXe-128" value="+ robotController: RobotControllerOptimizado" style="text;strokeColor=none;fillColor=none;align=left;verticalAlign=top;spacingLeft=4;spacingRight=4;overflow=hidden;rotatable=0;points=[[0,0.5],[1,0.5]];portConstraint=eastwest;" parent="2eaRCOAolLN9JBgcIaXe-126" vertex="1">
          <mxGeometry y="52" width="257" height="26" as="geometry" />
        </mxCell>
        <mxCell id="2eaRCOAolLN9JBgcIaXe-129" value="+ estadoServidorXmlrpc: Bool" style="text;strokeColor=none;fillColor=none;align=left;verticalAlign=top;spacingLeft=4;spacingRight=4;overflow=hidden;rotatable=0;points=[[0,0.5],[1,0.5]];portConstraint=eastwest;" parent="2eaRCOAolLN9JBgcIaXe-126" vertex="1">
          <mxGeometry y="78" width="257" height="26" as="geometry" />
        </mxCell>
        <mxCell id="2eaRCOAolLN9JBgcIaXe-138" value="+ ports: serial" style="text;strokeColor=none;fillColor=none;align=left;verticalAlign=top;spacingLeft=4;spacingRight=4;overflow=hidden;rotatable=0;points=[[0,0.5],[1,0.5]];portConstraint=eastwest;" parent="2eaRCOAolLN9JBgcIaXe-126" vertex="1">
          <mxGeometry y="104" width="257" height="26" as="geometry" />
        </mxCell>
        <mxCell id="2eaRCOAolLN9JBgcIaXe-144" value="+ servidor: XmlRpcServidorOptimizado" style="text;strokeColor=none;fillColor=none;align=left;verticalAlign=top;spacingLeft=4;spacingRight=4;overflow=hidden;rotatable=0;points=[[0,0.5],[1,0.5]];portConstraint=eastwest;" parent="2eaRCOAolLN9JBgcIaXe-126" vertex="1">
          <mxGeometry y="130" width="257" height="26" as="geometry" />
        </mxCell>
        <mxCell id="2eaRCOAolLN9JBgcIaXe-139" value="" style="line;strokeWidth=1;fillColor=none;align=left;verticalAlign=middle;spacingTop=-1;spacingLeft=3;spacingRight=3;rotatable=0;labelPosition=right;points=[];portConstraint=eastwest;strokeColor=inherit;labelBackgroundColor=none;" parent="2eaRCOAolLN9JBgcIaXe-126" vertex="1">
          <mxGeometry y="156" width="257" height="8" as="geometry" />
        </mxCell>
        <mxCell id="2eaRCOAolLN9JBgcIaXe-140" value="+ on_windows_close(event): void" style="text;strokeColor=none;fillColor=none;align=left;verticalAlign=top;spacingLeft=4;spacingRight=4;overflow=hidden;rotatable=0;points=[[0,0.5],[1,0.5]];portConstraint=eastwest;" parent="2eaRCOAolLN9JBgcIaXe-126" vertex="1">
          <mxGeometry y="164" width="257" height="26" as="geometry" />
        </mxCell>
        <mxCell id="2eaRCOAolLN9JBgcIaXe-141" value="+ iniciar_servidor_xmlrpc(): void" style="text;strokeColor=none;fillColor=none;align=left;verticalAlign=top;spacingLeft=4;spacingRight=4;overflow=hidden;rotatable=0;points=[[0,0.5],[1,0.5]];portConstraint=eastwest;" parent="2eaRCOAolLN9JBgcIaXe-126" vertex="1">
          <mxGeometry y="190" width="257" height="26" as="geometry" />
        </mxCell>
        <mxCell id="2eaRCOAolLN9JBgcIaXe-142" value="+ teclaPresionada(event): void" style="text;strokeColor=none;fillColor=none;align=left;verticalAlign=top;spacingLeft=4;spacingRight=4;overflow=hidden;rotatable=0;points=[[0,0.5],[1,0.5]];portConstraint=eastwest;" parent="2eaRCOAolLN9JBgcIaXe-126" vertex="1">
          <mxGeometry y="216" width="257" height="26" as="geometry" />
        </mxCell>
        <mxCell id="2eaRCOAolLN9JBgcIaXe-143" value="+ actualizarPort(): void" style="text;strokeColor=none;fillColor=none;align=left;verticalAlign=top;spacingLeft=4;spacingRight=4;overflow=hidden;rotatable=0;points=[[0,0.5],[1,0.5]];portConstraint=eastwest;" parent="2eaRCOAolLN9JBgcIaXe-126" vertex="1">
          <mxGeometry y="242" width="257" height="26" as="geometry" />
        </mxCell>
        <mxCell id="2eaRCOAolLN9JBgcIaXe-146" value="+ actualizarPort(): void" style="text;strokeColor=none;fillColor=none;align=left;verticalAlign=top;spacingLeft=4;spacingRight=4;overflow=hidden;rotatable=0;points=[[0,0.5],[1,0.5]];portConstraint=eastwest;" parent="2eaRCOAolLN9JBgcIaXe-126" vertex="1">
          <mxGeometry y="268" width="257" height="26" as="geometry" />
        </mxCell>
        <mxCell id="2eaRCOAolLN9JBgcIaXe-147" value="+ actualizarPort(): void" style="text;strokeColor=none;fillColor=none;align=left;verticalAlign=top;spacingLeft=4;spacingRight=4;overflow=hidden;rotatable=0;points=[[0,0.5],[1,0.5]];portConstraint=eastwest;" parent="2eaRCOAolLN9JBgcIaXe-126" vertex="1">
          <mxGeometry y="294" width="257" height="26" as="geometry" />
        </mxCell>
        <mxCell id="2eaRCOAolLN9JBgcIaXe-149" value="+ actualizarPort(): void" style="text;strokeColor=none;fillColor=none;align=left;verticalAlign=top;spacingLeft=4;spacingRight=4;overflow=hidden;rotatable=0;points=[[0,0.5],[1,0.5]];portConstraint=eastwest;" parent="2eaRCOAolLN9JBgcIaXe-126" vertex="1">
          <mxGeometry y="320" width="257" height="26" as="geometry" />
        </mxCell>
        <mxCell id="2eaRCOAolLN9JBgcIaXe-151" value="+ alternarTextoBotonBluetooth(): void" style="text;strokeColor=none;fillColor=none;align=left;verticalAlign=top;spacingLeft=4;spacingRight=4;overflow=hidden;rotatable=0;points=[[0,0.5],[1,0.5]];portConstraint=eastwest;" parent="2eaRCOAolLN9JBgcIaXe-126" vertex="1">
          <mxGeometry y="346" width="257" height="26" as="geometry" />
        </mxCell>
        <mxCell id="2eaRCOAolLN9JBgcIaXe-150" value="+ log_habilitarMotores(): void" style="text;strokeColor=none;fillColor=none;align=left;verticalAlign=top;spacingLeft=4;spacingRight=4;overflow=hidden;rotatable=0;points=[[0,0.5],[1,0.5]];portConstraint=eastwest;" parent="2eaRCOAolLN9JBgcIaXe-126" vertex="1">
          <mxGeometry y="372" width="257" height="26" as="geometry" />
        </mxCell>
        <mxCell id="2eaRCOAolLN9JBgcIaXe-148" value="+ log_moverAdelante(): void" style="text;strokeColor=none;fillColor=none;align=left;verticalAlign=top;spacingLeft=4;spacingRight=4;overflow=hidden;rotatable=0;points=[[0,0.5],[1,0.5]];portConstraint=eastwest;" parent="2eaRCOAolLN9JBgcIaXe-126" vertex="1">
          <mxGeometry y="398" width="257" height="26" as="geometry" />
        </mxCell>
        <mxCell id="2eaRCOAolLN9JBgcIaXe-145" value="+ log_moverAtras(): void" style="text;strokeColor=none;fillColor=none;align=left;verticalAlign=top;spacingLeft=4;spacingRight=4;overflow=hidden;rotatable=0;points=[[0,0.5],[1,0.5]];portConstraint=eastwest;" parent="2eaRCOAolLN9JBgcIaXe-126" vertex="1">
          <mxGeometry y="424" width="257" height="26" as="geometry" />
        </mxCell>
        <mxCell id="2eaRCOAolLN9JBgcIaXe-152" value="+ log_moverDerecha(): void" style="text;strokeColor=none;fillColor=none;align=left;verticalAlign=top;spacingLeft=4;spacingRight=4;overflow=hidden;rotatable=0;points=[[0,0.5],[1,0.5]];portConstraint=eastwest;" parent="2eaRCOAolLN9JBgcIaXe-126" vertex="1">
          <mxGeometry y="450" width="257" height="26" as="geometry" />
        </mxCell>
        <mxCell id="2eaRCOAolLN9JBgcIaXe-153" value="+ log_moverIzquierda(): void" style="text;strokeColor=none;fillColor=none;align=left;verticalAlign=top;spacingLeft=4;spacingRight=4;overflow=hidden;rotatable=0;points=[[0,0.5],[1,0.5]];portConstraint=eastwest;" parent="2eaRCOAolLN9JBgcIaXe-126" vertex="1">
          <mxGeometry y="476" width="257" height="26" as="geometry" />
        </mxCell>
        <mxCell id="2eaRCOAolLN9JBgcIaXe-155" value="+ log_detenerMovimiento(): void" style="text;strokeColor=none;fillColor=none;align=left;verticalAlign=top;spacingLeft=4;spacingRight=4;overflow=hidden;rotatable=0;points=[[0,0.5],[1,0.5]];portConstraint=eastwest;" parent="2eaRCOAolLN9JBgcIaXe-126" vertex="1">
          <mxGeometry y="502" width="257" height="26" as="geometry" />
        </mxCell>
        <mxCell id="2eaRCOAolLN9JBgcIaXe-157" value="QWidgets" style="swimlane;fontStyle=1;align=center;verticalAlign=top;childLayout=stackLayout;horizontal=1;startSize=26;horizontalStack=0;resizeParent=1;resizeParentMax=0;resizeLast=0;collapsible=1;marginBottom=0;labelBackgroundColor=none;fontSize=17;" parent="WIyWlLk6GJQsqaUBKTNV-1" vertex="1">
          <mxGeometry x="-627" y="-1110.5" width="160" height="34" as="geometry" />
        </mxCell>
        <mxCell id="2eaRCOAolLN9JBgcIaXe-158" value="QMainWindow" style="swimlane;fontStyle=1;align=center;verticalAlign=top;childLayout=stackLayout;horizontal=1;startSize=26;horizontalStack=0;resizeParent=1;resizeParentMax=0;resizeLast=0;collapsible=1;marginBottom=0;labelBackgroundColor=none;fontSize=17;" parent="WIyWlLk6GJQsqaUBKTNV-1" vertex="1">
          <mxGeometry x="-447" y="-1110.5" width="160" height="34" as="geometry" />
        </mxCell>
        <mxCell id="2eaRCOAolLN9JBgcIaXe-159" value="QApplications" style="swimlane;fontStyle=1;align=center;verticalAlign=top;childLayout=stackLayout;horizontal=1;startSize=26;horizontalStack=0;resizeParent=1;resizeParentMax=0;resizeLast=0;collapsible=1;marginBottom=0;labelBackgroundColor=none;fontSize=17;" parent="WIyWlLk6GJQsqaUBKTNV-1" vertex="1">
          <mxGeometry x="-277" y="-1110.5" width="160" height="34" as="geometry" />
        </mxCell>
        <mxCell id="2eaRCOAolLN9JBgcIaXe-160" value="XmlRpcServidorOptimizado" style="swimlane;fontStyle=1;align=center;verticalAlign=top;childLayout=stackLayout;horizontal=1;startSize=26;horizontalStack=0;resizeParent=1;resizeParentMax=0;resizeLast=0;collapsible=1;marginBottom=0;labelBackgroundColor=none;fontSize=17;" parent="WIyWlLk6GJQsqaUBKTNV-1" vertex="1">
          <mxGeometry x="-10" y="-850" width="300" height="398" as="geometry" />
        </mxCell>
        <mxCell id="2eaRCOAolLN9JBgcIaXe-161" value="+ puerto_usado: Int" style="text;strokeColor=none;fillColor=none;align=left;verticalAlign=top;spacingLeft=4;spacingRight=4;overflow=hidden;rotatable=0;points=[[0,0.5],[1,0.5]];portConstraint=eastwest;" parent="2eaRCOAolLN9JBgcIaXe-160" vertex="1">
          <mxGeometry y="26" width="300" height="26" as="geometry" />
        </mxCell>
        <mxCell id="2eaRCOAolLN9JBgcIaXe-162" value="+ robotController: RobotControllerOptimizado" style="text;strokeColor=none;fillColor=none;align=left;verticalAlign=top;spacingLeft=4;spacingRight=4;overflow=hidden;rotatable=0;points=[[0,0.5],[1,0.5]];portConstraint=eastwest;" parent="2eaRCOAolLN9JBgcIaXe-160" vertex="1">
          <mxGeometry y="52" width="300" height="26" as="geometry" />
        </mxCell>
        <mxCell id="2eaRCOAolLN9JBgcIaXe-163" value="+ estado_sv: Bool" style="text;strokeColor=none;fillColor=none;align=left;verticalAlign=top;spacingLeft=4;spacingRight=4;overflow=hidden;rotatable=0;points=[[0,0.5],[1,0.5]];portConstraint=eastwest;" parent="2eaRCOAolLN9JBgcIaXe-160" vertex="1">
          <mxGeometry y="78" width="300" height="26" as="geometry" />
        </mxCell>
        <mxCell id="2eaRCOAolLN9JBgcIaXe-164" value="+ server: SimpleXMLRPCServer" style="text;strokeColor=none;fillColor=none;align=left;verticalAlign=top;spacingLeft=4;spacingRight=4;overflow=hidden;rotatable=0;points=[[0,0.5],[1,0.5]];portConstraint=eastwest;" parent="2eaRCOAolLN9JBgcIaXe-160" vertex="1">
          <mxGeometry y="104" width="300" height="26" as="geometry" />
        </mxCell>
        <mxCell id="2eaRCOAolLN9JBgcIaXe-165" value="+ max_attempts: Int" style="text;strokeColor=none;fillColor=none;align=left;verticalAlign=top;spacingLeft=4;spacingRight=4;overflow=hidden;rotatable=0;points=[[0,0.5],[1,0.5]];portConstraint=eastwest;" parent="2eaRCOAolLN9JBgcIaXe-160" vertex="1">
          <mxGeometry y="130" width="300" height="26" as="geometry" />
        </mxCell>
        <mxCell id="2eaRCOAolLN9JBgcIaXe-181" value="+ thread: Thread" style="text;strokeColor=none;fillColor=none;align=left;verticalAlign=top;spacingLeft=4;spacingRight=4;overflow=hidden;rotatable=0;points=[[0,0.5],[1,0.5]];portConstraint=eastwest;" parent="2eaRCOAolLN9JBgcIaXe-160" vertex="1">
          <mxGeometry y="156" width="300" height="26" as="geometry" />
        </mxCell>
        <mxCell id="2eaRCOAolLN9JBgcIaXe-166" value="" style="line;strokeWidth=1;fillColor=none;align=left;verticalAlign=middle;spacingTop=-1;spacingLeft=3;spacingRight=3;rotatable=0;labelPosition=right;points=[];portConstraint=eastwest;strokeColor=inherit;labelBackgroundColor=none;" parent="2eaRCOAolLN9JBgcIaXe-160" vertex="1">
          <mxGeometry y="182" width="300" height="8" as="geometry" />
        </mxCell>
        <mxCell id="2eaRCOAolLN9JBgcIaXe-167" value="+ run_server(): void" style="text;strokeColor=none;fillColor=none;align=left;verticalAlign=top;spacingLeft=4;spacingRight=4;overflow=hidden;rotatable=0;points=[[0,0.5],[1,0.5]];portConstraint=eastwest;" parent="2eaRCOAolLN9JBgcIaXe-160" vertex="1">
          <mxGeometry y="190" width="300" height="26" as="geometry" />
        </mxCell>
        <mxCell id="2eaRCOAolLN9JBgcIaXe-168" value="+ do_on_off_bt(): void" style="text;strokeColor=none;fillColor=none;align=left;verticalAlign=top;spacingLeft=4;spacingRight=4;overflow=hidden;rotatable=0;points=[[0,0.5],[1,0.5]];portConstraint=eastwest;" parent="2eaRCOAolLN9JBgcIaXe-160" vertex="1">
          <mxGeometry y="216" width="300" height="26" as="geometry" />
        </mxCell>
        <mxCell id="2eaRCOAolLN9JBgcIaXe-169" value="+ do_on_off_mt(): void" style="text;strokeColor=none;fillColor=none;align=left;verticalAlign=top;spacingLeft=4;spacingRight=4;overflow=hidden;rotatable=0;points=[[0,0.5],[1,0.5]];portConstraint=eastwest;" parent="2eaRCOAolLN9JBgcIaXe-160" vertex="1">
          <mxGeometry y="242" width="300" height="26" as="geometry" />
        </mxCell>
        <mxCell id="2eaRCOAolLN9JBgcIaXe-170" value="+ do_avanzar(): void" style="text;strokeColor=none;fillColor=none;align=left;verticalAlign=top;spacingLeft=4;spacingRight=4;overflow=hidden;rotatable=0;points=[[0,0.5],[1,0.5]];portConstraint=eastwest;" parent="2eaRCOAolLN9JBgcIaXe-160" vertex="1">
          <mxGeometry y="268" width="300" height="26" as="geometry" />
        </mxCell>
        <mxCell id="2eaRCOAolLN9JBgcIaXe-171" value="+ do_retroceder(): void" style="text;strokeColor=none;fillColor=none;align=left;verticalAlign=top;spacingLeft=4;spacingRight=4;overflow=hidden;rotatable=0;points=[[0,0.5],[1,0.5]];portConstraint=eastwest;" parent="2eaRCOAolLN9JBgcIaXe-160" vertex="1">
          <mxGeometry y="294" width="300" height="26" as="geometry" />
        </mxCell>
        <mxCell id="2eaRCOAolLN9JBgcIaXe-172" value="+ do_derecha(): void" style="text;strokeColor=none;fillColor=none;align=left;verticalAlign=top;spacingLeft=4;spacingRight=4;overflow=hidden;rotatable=0;points=[[0,0.5],[1,0.5]];portConstraint=eastwest;" parent="2eaRCOAolLN9JBgcIaXe-160" vertex="1">
          <mxGeometry y="320" width="300" height="26" as="geometry" />
        </mxCell>
        <mxCell id="2eaRCOAolLN9JBgcIaXe-173" value="+ do_izquierda(): void" style="text;strokeColor=none;fillColor=none;align=left;verticalAlign=top;spacingLeft=4;spacingRight=4;overflow=hidden;rotatable=0;points=[[0,0.5],[1,0.5]];portConstraint=eastwest;" parent="2eaRCOAolLN9JBgcIaXe-160" vertex="1">
          <mxGeometry y="346" width="300" height="26" as="geometry" />
        </mxCell>
        <mxCell id="2eaRCOAolLN9JBgcIaXe-174" value="+ do_detenerse(): void" style="text;strokeColor=none;fillColor=none;align=left;verticalAlign=top;spacingLeft=4;spacingRight=4;overflow=hidden;rotatable=0;points=[[0,0.5],[1,0.5]];portConstraint=eastwest;" parent="2eaRCOAolLN9JBgcIaXe-160" vertex="1">
          <mxGeometry y="372" width="300" height="26" as="geometry" />
        </mxCell>
        <mxCell id="2eaRCOAolLN9JBgcIaXe-182" value="&lt;font style=&quot;font-size: 25px;&quot;&gt;threading&lt;/font&gt;" style="shape=folder;fontStyle=1;spacingTop=10;tabWidth=40;tabHeight=14;tabPosition=left;html=1;verticalAlign=top;" parent="WIyWlLk6GJQsqaUBKTNV-1" vertex="1">
          <mxGeometry x="303" y="-1157.5" width="200" height="159" as="geometry" />
        </mxCell>
        <mxCell id="2eaRCOAolLN9JBgcIaXe-183" value="Thread" style="swimlane;fontStyle=1;align=center;verticalAlign=top;childLayout=stackLayout;horizontal=1;startSize=26;horizontalStack=0;resizeParent=1;resizeParentMax=0;resizeLast=0;collapsible=1;marginBottom=0;labelBackgroundColor=none;fontSize=17;" parent="WIyWlLk6GJQsqaUBKTNV-1" vertex="1">
          <mxGeometry x="323" y="-1092.5" width="160" height="46" as="geometry" />
        </mxCell>
        <mxCell id="2eaRCOAolLN9JBgcIaXe-184" value="&lt;font style=&quot;font-size: 25px;&quot;&gt;socket&lt;/font&gt;" style="shape=folder;fontStyle=1;spacingTop=10;tabWidth=40;tabHeight=14;tabPosition=left;html=1;verticalAlign=top;" parent="WIyWlLk6GJQsqaUBKTNV-1" vertex="1">
          <mxGeometry x="533" y="-1155" width="200" height="159" as="geometry" />
        </mxCell>
        <mxCell id="2eaRCOAolLN9JBgcIaXe-185" value="socket" style="swimlane;fontStyle=1;align=center;verticalAlign=top;childLayout=stackLayout;horizontal=1;startSize=26;horizontalStack=0;resizeParent=1;resizeParentMax=0;resizeLast=0;collapsible=1;marginBottom=0;labelBackgroundColor=none;fontSize=17;" parent="WIyWlLk6GJQsqaUBKTNV-1" vertex="1">
          <mxGeometry x="553" y="-1090" width="160" height="43.5" as="geometry" />
        </mxCell>
        <mxCell id="2eaRCOAolLN9JBgcIaXe-196" value="RobotController" style="swimlane;fontStyle=1;align=center;verticalAlign=top;childLayout=stackLayout;horizontal=1;startSize=26;horizontalStack=0;resizeParent=1;resizeParentMax=0;resizeLast=0;collapsible=1;marginBottom=0;labelBackgroundColor=none;fontSize=17;" parent="WIyWlLk6GJQsqaUBKTNV-1" vertex="1">
          <mxGeometry x="-371" y="-868" width="300" height="346" as="geometry" />
        </mxCell>
        <mxCell id="2eaRCOAolLN9JBgcIaXe-197" value="+ view: MainView" style="text;strokeColor=none;fillColor=none;align=left;verticalAlign=top;spacingLeft=4;spacingRight=4;overflow=hidden;rotatable=0;points=[[0,0.5],[1,0.5]];portConstraint=eastwest;" parent="2eaRCOAolLN9JBgcIaXe-196" vertex="1">
          <mxGeometry y="26" width="300" height="26" as="geometry" />
        </mxCell>
        <mxCell id="2eaRCOAolLN9JBgcIaXe-198" value="+ robot_tank: Robot" style="text;strokeColor=none;fillColor=none;align=left;verticalAlign=top;spacingLeft=4;spacingRight=4;overflow=hidden;rotatable=0;points=[[0,0.5],[1,0.5]];portConstraint=eastwest;" parent="2eaRCOAolLN9JBgcIaXe-196" vertex="1">
          <mxGeometry y="52" width="300" height="26" as="geometry" />
        </mxCell>
        <mxCell id="2eaRCOAolLN9JBgcIaXe-199" value="+ portBt: String" style="text;strokeColor=none;fillColor=none;align=left;verticalAlign=top;spacingLeft=4;spacingRight=4;overflow=hidden;rotatable=0;points=[[0,0.5],[1,0.5]];portConstraint=eastwest;" parent="2eaRCOAolLN9JBgcIaXe-196" vertex="1">
          <mxGeometry y="78" width="300" height="26" as="geometry" />
        </mxCell>
        <mxCell id="2eaRCOAolLN9JBgcIaXe-203" value="" style="line;strokeWidth=1;fillColor=none;align=left;verticalAlign=middle;spacingTop=-1;spacingLeft=3;spacingRight=3;rotatable=0;labelPosition=right;points=[];portConstraint=eastwest;strokeColor=inherit;labelBackgroundColor=none;" parent="2eaRCOAolLN9JBgcIaXe-196" vertex="1">
          <mxGeometry y="104" width="300" height="8" as="geometry" />
        </mxCell>
        <mxCell id="2eaRCOAolLN9JBgcIaXe-204" value="+ habilitar_motores(): void" style="text;strokeColor=none;fillColor=none;align=left;verticalAlign=top;spacingLeft=4;spacingRight=4;overflow=hidden;rotatable=0;points=[[0,0.5],[1,0.5]];portConstraint=eastwest;" parent="2eaRCOAolLN9JBgcIaXe-196" vertex="1">
          <mxGeometry y="112" width="300" height="26" as="geometry" />
        </mxCell>
        <mxCell id="2eaRCOAolLN9JBgcIaXe-212" value="+ conectarBluetooth(): void" style="text;strokeColor=none;fillColor=none;align=left;verticalAlign=top;spacingLeft=4;spacingRight=4;overflow=hidden;rotatable=0;points=[[0,0.5],[1,0.5]];portConstraint=eastwest;" parent="2eaRCOAolLN9JBgcIaXe-196" vertex="1">
          <mxGeometry y="138" width="300" height="26" as="geometry" />
        </mxCell>
        <mxCell id="2eaRCOAolLN9JBgcIaXe-205" value="+ mover_adelante(): void" style="text;strokeColor=none;fillColor=none;align=left;verticalAlign=top;spacingLeft=4;spacingRight=4;overflow=hidden;rotatable=0;points=[[0,0.5],[1,0.5]];portConstraint=eastwest;" parent="2eaRCOAolLN9JBgcIaXe-196" vertex="1">
          <mxGeometry y="164" width="300" height="26" as="geometry" />
        </mxCell>
        <mxCell id="2eaRCOAolLN9JBgcIaXe-206" value="+ mover_atras(): void" style="text;strokeColor=none;fillColor=none;align=left;verticalAlign=top;spacingLeft=4;spacingRight=4;overflow=hidden;rotatable=0;points=[[0,0.5],[1,0.5]];portConstraint=eastwest;" parent="2eaRCOAolLN9JBgcIaXe-196" vertex="1">
          <mxGeometry y="190" width="300" height="26" as="geometry" />
        </mxCell>
        <mxCell id="2eaRCOAolLN9JBgcIaXe-207" value="+ mover_derecha(): void" style="text;strokeColor=none;fillColor=none;align=left;verticalAlign=top;spacingLeft=4;spacingRight=4;overflow=hidden;rotatable=0;points=[[0,0.5],[1,0.5]];portConstraint=eastwest;" parent="2eaRCOAolLN9JBgcIaXe-196" vertex="1">
          <mxGeometry y="216" width="300" height="26" as="geometry" />
        </mxCell>
        <mxCell id="2eaRCOAolLN9JBgcIaXe-208" value="+ mover_izquierda(): void" style="text;strokeColor=none;fillColor=none;align=left;verticalAlign=top;spacingLeft=4;spacingRight=4;overflow=hidden;rotatable=0;points=[[0,0.5],[1,0.5]];portConstraint=eastwest;" parent="2eaRCOAolLN9JBgcIaXe-196" vertex="1">
          <mxGeometry y="242" width="300" height="26" as="geometry" />
        </mxCell>
        <mxCell id="2eaRCOAolLN9JBgcIaXe-209" value="+ detener_movimiento(): void" style="text;strokeColor=none;fillColor=none;align=left;verticalAlign=top;spacingLeft=4;spacingRight=4;overflow=hidden;rotatable=0;points=[[0,0.5],[1,0.5]];portConstraint=eastwest;" parent="2eaRCOAolLN9JBgcIaXe-196" vertex="1">
          <mxGeometry y="268" width="300" height="26" as="geometry" />
        </mxCell>
        <mxCell id="2eaRCOAolLN9JBgcIaXe-210" value="+ mover(String): void" style="text;strokeColor=none;fillColor=none;align=left;verticalAlign=top;spacingLeft=4;spacingRight=4;overflow=hidden;rotatable=0;points=[[0,0.5],[1,0.5]];portConstraint=eastwest;" parent="2eaRCOAolLN9JBgcIaXe-196" vertex="1">
          <mxGeometry y="294" width="300" height="26" as="geometry" />
        </mxCell>
        <mxCell id="2eaRCOAolLN9JBgcIaXe-211" value="+ verificarHabilitacionDeMovimiento(): void" style="text;strokeColor=none;fillColor=none;align=left;verticalAlign=top;spacingLeft=4;spacingRight=4;overflow=hidden;rotatable=0;points=[[0,0.5],[1,0.5]];portConstraint=eastwest;" parent="2eaRCOAolLN9JBgcIaXe-196" vertex="1">
          <mxGeometry y="320" width="300" height="26" as="geometry" />
        </mxCell>
        <mxCell id="2eaRCOAolLN9JBgcIaXe-213" style="edgeStyle=orthogonalEdgeStyle;rounded=0;orthogonalLoop=1;jettySize=auto;html=1;exitX=1;exitY=0.5;exitDx=0;exitDy=0;startArrow=open;startFill=0;endSize=27;targetPerimeterSpacing=11;startSize=13;sourcePerimeterSpacing=9;endArrow=diamondThin;endFill=1;jumpSize=6;strokeWidth=3;entryX=0.937;entryY=1.077;entryDx=0;entryDy=0;entryPerimeter=0;" parent="WIyWlLk6GJQsqaUBKTNV-1" source="2eaRCOAolLN9JBgcIaXe-101" target="2eaRCOAolLN9JBgcIaXe-211" edge="1">
          <mxGeometry relative="1" as="geometry">
            <mxPoint x="-30" y="-70" as="targetPoint" />
            <Array as="points">
              <mxPoint x="260" y="892" />
              <mxPoint x="260" y="-68" />
              <mxPoint x="-60" y="-68" />
              <mxPoint x="-60" y="-480" />
              <mxPoint x="-90" y="-480" />
            </Array>
          </mxGeometry>
        </mxCell>
        <mxCell id="2eaRCOAolLN9JBgcIaXe-215" style="edgeStyle=orthogonalEdgeStyle;rounded=0;orthogonalLoop=1;jettySize=auto;html=1;exitX=0;exitY=0.865;exitDx=0;exitDy=0;entryX=1;entryY=0.5;entryDx=0;entryDy=0;endArrow=open;endFill=0;jumpSize=6;strokeWidth=3;startArrow=diamondThin;startFill=0;endSize=14;startSize=27;exitPerimeter=0;" parent="WIyWlLk6GJQsqaUBKTNV-1" source="2eaRCOAolLN9JBgcIaXe-8" target="2eaRCOAolLN9JBgcIaXe-199" edge="1">
          <mxGeometry relative="1" as="geometry">
            <Array as="points">
              <mxPoint x="-40" y="-410" />
              <mxPoint x="-40" y="-777" />
            </Array>
          </mxGeometry>
        </mxCell>
        <mxCell id="eTFXP2I0kW7cPbEqcGvm-6" value="&lt;font style=&quot;font-size: 12px;&quot;&gt;&lt;font style=&quot;font-size: 13px;&quot;&gt;&lt;font style=&quot;font-size: 14px;&quot;&gt;&lt;font style=&quot;font-size: 15px;&quot;&gt;&lt;font style=&quot;font-size: 16px;&quot;&gt;&lt;font style=&quot;font-size: 17px;&quot;&gt;&lt;font style=&quot;font-size: 18px;&quot;&gt;&lt;font style=&quot;font-size: 19px;&quot;&gt;&lt;font style=&quot;font-size: 20px;&quot;&gt;Agregación&lt;/font&gt;&lt;/font&gt;&lt;/font&gt;&lt;/font&gt;&lt;/font&gt;&lt;/font&gt;&lt;/font&gt;&lt;/font&gt;&lt;/font&gt;" style="edgeLabel;html=1;align=center;verticalAlign=middle;resizable=0;points=[];" vertex="1" connectable="0" parent="2eaRCOAolLN9JBgcIaXe-215">
          <mxGeometry x="0.2603" y="1" relative="1" as="geometry">
            <mxPoint x="251" y="58" as="offset" />
          </mxGeometry>
        </mxCell>
        <mxCell id="2eaRCOAolLN9JBgcIaXe-217" style="edgeStyle=orthogonalEdgeStyle;rounded=0;orthogonalLoop=1;jettySize=auto;html=1;exitX=0.5;exitY=0;exitDx=0;exitDy=0;entryX=0.386;entryY=0.982;entryDx=0;entryDy=0;entryPerimeter=0;endArrow=none;endFill=0;jumpSize=6;strokeWidth=3;" parent="WIyWlLk6GJQsqaUBKTNV-1" source="2eaRCOAolLN9JBgcIaXe-216" target="2eaRCOAolLN9JBgcIaXe-11" edge="1">
          <mxGeometry relative="1" as="geometry">
            <Array as="points">
              <mxPoint x="583" y="-196.5" />
            </Array>
          </mxGeometry>
        </mxCell>
        <mxCell id="2eaRCOAolLN9JBgcIaXe-218" style="edgeStyle=orthogonalEdgeStyle;rounded=0;orthogonalLoop=1;jettySize=auto;html=1;exitX=0;exitY=0.5;exitDx=0;exitDy=0;entryX=1;entryY=0.5;entryDx=0;entryDy=0;endArrow=none;endFill=0;jumpSize=6;strokeWidth=3;" parent="WIyWlLk6GJQsqaUBKTNV-1" source="2eaRCOAolLN9JBgcIaXe-216" target="2eaRCOAolLN9JBgcIaXe-152" edge="1">
          <mxGeometry relative="1" as="geometry">
            <Array as="points">
              <mxPoint x="505" y="-153" />
              <mxPoint x="30" y="-153" />
              <mxPoint x="30" y="-393" />
            </Array>
          </mxGeometry>
        </mxCell>
        <mxCell id="2eaRCOAolLN9JBgcIaXe-216" value="app" style="swimlane;fontStyle=1;align=center;verticalAlign=top;childLayout=stackLayout;horizontal=1;startSize=26;horizontalStack=0;resizeParent=1;resizeParentMax=0;resizeLast=0;collapsible=1;marginBottom=0;labelBackgroundColor=none;fontSize=17;" parent="WIyWlLk6GJQsqaUBKTNV-1" vertex="1">
          <mxGeometry x="505" y="-196.5" width="160" height="80" as="geometry" />
        </mxCell>
        <mxCell id="2eaRCOAolLN9JBgcIaXe-222" value="&lt;font style=&quot;font-size: 12px;&quot;&gt;&lt;font style=&quot;font-size: 13px;&quot;&gt;&lt;font style=&quot;font-size: 14px;&quot;&gt;&lt;font style=&quot;font-size: 15px;&quot;&gt;&lt;font style=&quot;font-size: 16px;&quot;&gt;&lt;font style=&quot;font-size: 17px;&quot;&gt;&lt;font style=&quot;font-size: 18px;&quot;&gt;&lt;font style=&quot;font-size: 19px;&quot;&gt;&lt;font style=&quot;font-size: 20px;&quot;&gt;Composición&lt;/font&gt;&lt;/font&gt;&lt;/font&gt;&lt;/font&gt;&lt;/font&gt;&lt;/font&gt;&lt;/font&gt;&lt;/font&gt;&lt;/font&gt;" style="endArrow=open;html=1;endSize=12;startArrow=diamondThin;startSize=27;startFill=1;edgeStyle=orthogonalEdgeStyle;rounded=0;exitX=0;exitY=0.5;exitDx=0;exitDy=0;jumpSize=6;strokeWidth=3;" parent="WIyWlLk6GJQsqaUBKTNV-1" source="2eaRCOAolLN9JBgcIaXe-80" edge="1">
          <mxGeometry relative="1" as="geometry">
            <mxPoint x="-280" y="769.57" as="sourcePoint" />
            <mxPoint x="-590" y="800" as="targetPoint" />
            <Array as="points">
              <mxPoint x="-350" y="762" />
              <mxPoint x="-350" y="800" />
              <mxPoint x="-590" y="800" />
            </Array>
          </mxGeometry>
        </mxCell>
        <mxCell id="2eaRCOAolLN9JBgcIaXe-223" value="1" style="edgeLabel;resizable=0;html=1;align=left;verticalAlign=top;labelBackgroundColor=none;fontSize=23;" parent="2eaRCOAolLN9JBgcIaXe-222" connectable="0" vertex="1">
          <mxGeometry x="-1" relative="1" as="geometry">
            <mxPoint x="-30" y="8" as="offset" />
          </mxGeometry>
        </mxCell>
        <mxCell id="2eaRCOAolLN9JBgcIaXe-224" value="0..*" style="edgeLabel;resizable=0;html=1;align=right;verticalAlign=top;labelBackgroundColor=none;fontSize=23;" parent="2eaRCOAolLN9JBgcIaXe-222" connectable="0" vertex="1">
          <mxGeometry x="1" relative="1" as="geometry">
            <mxPoint x="40" as="offset" />
          </mxGeometry>
        </mxCell>
        <mxCell id="2eaRCOAolLN9JBgcIaXe-225" value="&lt;font style=&quot;font-size: 12px;&quot;&gt;&lt;font style=&quot;font-size: 13px;&quot;&gt;&lt;font style=&quot;font-size: 14px;&quot;&gt;&lt;font style=&quot;font-size: 15px;&quot;&gt;&lt;font style=&quot;font-size: 16px;&quot;&gt;&lt;font style=&quot;font-size: 17px;&quot;&gt;&lt;font style=&quot;font-size: 18px;&quot;&gt;&lt;font style=&quot;font-size: 19px;&quot;&gt;&lt;font style=&quot;font-size: 20px;&quot;&gt;Composición&lt;/font&gt;&lt;/font&gt;&lt;/font&gt;&lt;/font&gt;&lt;/font&gt;&lt;/font&gt;&lt;/font&gt;&lt;/font&gt;&lt;/font&gt;" style="endArrow=open;html=1;endSize=12;startArrow=diamondThin;startSize=27;startFill=1;edgeStyle=orthogonalEdgeStyle;rounded=0;entryX=1;entryY=0.5;entryDx=0;entryDy=0;jumpSize=6;strokeWidth=3;" parent="WIyWlLk6GJQsqaUBKTNV-1" target="2eaRCOAolLN9JBgcIaXe-40" edge="1">
          <mxGeometry relative="1" as="geometry">
            <mxPoint x="-110" y="840" as="sourcePoint" />
            <mxPoint x="-580" y="810" as="targetPoint" />
            <Array as="points">
              <mxPoint x="-340" y="840" />
              <mxPoint x="-340" y="992" />
            </Array>
          </mxGeometry>
        </mxCell>
        <mxCell id="2eaRCOAolLN9JBgcIaXe-226" value="1" style="edgeLabel;resizable=0;html=1;align=left;verticalAlign=top;labelBackgroundColor=none;fontSize=23;" parent="2eaRCOAolLN9JBgcIaXe-225" connectable="0" vertex="1">
          <mxGeometry x="-1" relative="1" as="geometry">
            <mxPoint x="-30" y="8" as="offset" />
          </mxGeometry>
        </mxCell>
        <mxCell id="2eaRCOAolLN9JBgcIaXe-227" value="1" style="edgeLabel;resizable=0;html=1;align=right;verticalAlign=top;labelBackgroundColor=none;fontSize=23;" parent="2eaRCOAolLN9JBgcIaXe-225" connectable="0" vertex="1">
          <mxGeometry x="1" relative="1" as="geometry">
            <mxPoint x="30" as="offset" />
          </mxGeometry>
        </mxCell>
        <mxCell id="2eaRCOAolLN9JBgcIaXe-228" value="&lt;font style=&quot;font-size: 21px;&quot;&gt;&lt;font style=&quot;font-size: 21px;&quot;&gt;&lt;font style=&quot;font-size: 21px;&quot;&gt;&lt;font style=&quot;font-size: 21px;&quot;&gt;&lt;font style=&quot;font-size: 21px;&quot;&gt;&lt;font style=&quot;font-size: 21px;&quot;&gt;&lt;font style=&quot;font-size: 21px;&quot;&gt;&lt;font style=&quot;font-size: 21px;&quot;&gt;&lt;font style=&quot;font-size: 21px;&quot;&gt;&lt;font style=&quot;font-size: 21px;&quot;&gt;&lt;font style=&quot;font-size: 21px;&quot;&gt;&lt;font style=&quot;font-size: 20px;&quot;&gt;Composición&lt;/font&gt;&lt;/font&gt;&lt;/font&gt;&lt;/font&gt;&lt;/font&gt;&lt;/font&gt;&lt;/font&gt;&lt;/font&gt;&lt;/font&gt;&lt;/font&gt;&lt;/font&gt;&lt;/font&gt;" style="endArrow=open;html=1;endSize=12;startArrow=diamondThin;startSize=27;startFill=1;edgeStyle=orthogonalEdgeStyle;rounded=0;exitX=0;exitY=0.88;exitDx=0;exitDy=0;exitPerimeter=0;entryX=0.884;entryY=1.06;entryDx=0;entryDy=0;entryPerimeter=0;jumpSize=6;strokeWidth=3;" parent="WIyWlLk6GJQsqaUBKTNV-1" source="2eaRCOAolLN9JBgcIaXe-78" target="2eaRCOAolLN9JBgcIaXe-32" edge="1">
          <mxGeometry relative="1" as="geometry">
            <mxPoint x="-140" y="710" as="sourcePoint" />
            <mxPoint x="-620" y="748" as="targetPoint" />
            <Array as="points">
              <mxPoint x="-564" y="720" />
            </Array>
          </mxGeometry>
        </mxCell>
        <mxCell id="2eaRCOAolLN9JBgcIaXe-229" value="1" style="edgeLabel;resizable=0;html=1;align=left;verticalAlign=top;labelBackgroundColor=none;fontSize=23;" parent="2eaRCOAolLN9JBgcIaXe-228" connectable="0" vertex="1">
          <mxGeometry x="-1" relative="1" as="geometry">
            <mxPoint x="-30" y="8" as="offset" />
          </mxGeometry>
        </mxCell>
        <mxCell id="2eaRCOAolLN9JBgcIaXe-230" value="2" style="edgeLabel;resizable=0;html=1;align=right;verticalAlign=top;labelBackgroundColor=none;fontSize=23;" parent="2eaRCOAolLN9JBgcIaXe-228" connectable="0" vertex="1">
          <mxGeometry x="1" relative="1" as="geometry">
            <mxPoint x="30" as="offset" />
          </mxGeometry>
        </mxCell>
        <mxCell id="2eaRCOAolLN9JBgcIaXe-234" value="&lt;font style=&quot;font-size: 12px;&quot;&gt;&lt;font style=&quot;font-size: 13px;&quot;&gt;&lt;font style=&quot;font-size: 14px;&quot;&gt;&lt;font style=&quot;font-size: 15px;&quot;&gt;&lt;font style=&quot;font-size: 16px;&quot;&gt;&lt;font style=&quot;font-size: 17px;&quot;&gt;&lt;font style=&quot;font-size: 18px;&quot;&gt;&lt;font style=&quot;font-size: 19px;&quot;&gt;&lt;font style=&quot;font-size: 20px;&quot;&gt;Composición&lt;/font&gt;&lt;/font&gt;&lt;/font&gt;&lt;/font&gt;&lt;/font&gt;&lt;/font&gt;&lt;/font&gt;&lt;/font&gt;&lt;/font&gt;" style="endArrow=open;html=1;endSize=12;startArrow=diamondThin;startSize=27;startFill=1;edgeStyle=orthogonalEdgeStyle;rounded=0;exitX=0;exitY=0.5;exitDx=0;exitDy=0;entryX=0.519;entryY=1.077;entryDx=0;entryDy=0;entryPerimeter=0;jumpSize=6;strokeWidth=3;" parent="WIyWlLk6GJQsqaUBKTNV-1" source="2eaRCOAolLN9JBgcIaXe-91" target="2eaRCOAolLN9JBgcIaXe-53" edge="1">
          <mxGeometry relative="1" as="geometry">
            <mxPoint x="-100" y="730" as="sourcePoint" />
            <mxPoint x="-554" y="571" as="targetPoint" />
            <Array as="points">
              <mxPoint x="-285" y="650" />
            </Array>
          </mxGeometry>
        </mxCell>
        <mxCell id="2eaRCOAolLN9JBgcIaXe-235" value="1" style="edgeLabel;resizable=0;html=1;align=left;verticalAlign=top;labelBackgroundColor=none;fontSize=23;" parent="2eaRCOAolLN9JBgcIaXe-234" connectable="0" vertex="1">
          <mxGeometry x="-1" relative="1" as="geometry">
            <mxPoint x="-30" y="8" as="offset" />
          </mxGeometry>
        </mxCell>
        <mxCell id="2eaRCOAolLN9JBgcIaXe-236" value="1" style="edgeLabel;resizable=0;html=1;align=right;verticalAlign=top;labelBackgroundColor=none;fontSize=23;" parent="2eaRCOAolLN9JBgcIaXe-234" connectable="0" vertex="1">
          <mxGeometry x="1" relative="1" as="geometry">
            <mxPoint x="30" as="offset" />
          </mxGeometry>
        </mxCell>
        <mxCell id="2eaRCOAolLN9JBgcIaXe-237" style="edgeStyle=orthogonalEdgeStyle;rounded=0;orthogonalLoop=1;jettySize=auto;html=1;exitX=0.5;exitY=0;exitDx=0;exitDy=0;endArrow=block;endFill=1;targetPerimeterSpacing=0;strokeWidth=3;jumpSize=6;startSize=8;endSize=10;" parent="WIyWlLk6GJQsqaUBKTNV-1" source="2eaRCOAolLN9JBgcIaXe-126" target="2eaRCOAolLN9JBgcIaXe-122" edge="1">
          <mxGeometry relative="1" as="geometry">
            <mxPoint x="-767" y="-837" as="sourcePoint" />
            <mxPoint x="-524" y="-996" as="targetPoint" />
            <Array as="points">
              <mxPoint x="-617" y="-945" />
              <mxPoint x="-524" y="-945" />
            </Array>
          </mxGeometry>
        </mxCell>
        <mxCell id="2eaRCOAolLN9JBgcIaXe-238" style="edgeStyle=orthogonalEdgeStyle;rounded=0;orthogonalLoop=1;jettySize=auto;html=1;endArrow=block;endFill=1;targetPerimeterSpacing=0;strokeWidth=3;jumpSize=6;startSize=8;endSize=10;entryX=0.5;entryY=1;entryDx=0;entryDy=0;" parent="WIyWlLk6GJQsqaUBKTNV-1" target="2eaRCOAolLN9JBgcIaXe-119" edge="1">
          <mxGeometry relative="1" as="geometry">
            <mxPoint x="140" y="-850" as="sourcePoint" />
            <mxPoint x="166" y="-946.5" as="targetPoint" />
            <Array as="points">
              <mxPoint x="142" y="-850" />
            </Array>
          </mxGeometry>
        </mxCell>
        <mxCell id="eTFXP2I0kW7cPbEqcGvm-0" style="edgeStyle=orthogonalEdgeStyle;rounded=0;orthogonalLoop=1;jettySize=auto;html=1;exitX=0;exitY=0.5;exitDx=0;exitDy=0;endArrow=block;endFill=1;targetPerimeterSpacing=0;strokeWidth=3;jumpSize=6;startSize=10;endSize=10;entryX=0.676;entryY=1.006;entryDx=0;entryDy=0;entryPerimeter=0;" edge="1" parent="WIyWlLk6GJQsqaUBKTNV-1" source="2eaRCOAolLN9JBgcIaXe-5" target="2eaRCOAolLN9JBgcIaXe-122">
          <mxGeometry relative="1" as="geometry">
            <mxPoint x="-567" y="-846" as="sourcePoint" />
            <mxPoint x="-514" y="-991" as="targetPoint" />
            <Array as="points">
              <mxPoint x="490" y="-737" />
              <mxPoint x="380" y="-737" />
              <mxPoint x="380" y="-920" />
              <mxPoint x="-320" y="-920" />
            </Array>
          </mxGeometry>
        </mxCell>
        <mxCell id="eTFXP2I0kW7cPbEqcGvm-2" value="&lt;font style=&quot;font-size: 12px;&quot;&gt;&lt;font style=&quot;font-size: 13px;&quot;&gt;&lt;font style=&quot;font-size: 14px;&quot;&gt;&lt;font style=&quot;font-size: 15px;&quot;&gt;&lt;font style=&quot;font-size: 16px;&quot;&gt;&lt;font style=&quot;font-size: 17px;&quot;&gt;&lt;font style=&quot;font-size: 18px;&quot;&gt;&lt;font style=&quot;font-size: 19px;&quot;&gt;&lt;font style=&quot;font-size: 20px;&quot;&gt;Agregación&lt;/font&gt;&lt;/font&gt;&lt;/font&gt;&lt;/font&gt;&lt;/font&gt;&lt;/font&gt;&lt;/font&gt;&lt;/font&gt;&lt;/font&gt;" style="endArrow=open;html=1;endSize=12;startArrow=diamondThin;startSize=27;startFill=0;edgeStyle=orthogonalEdgeStyle;rounded=0;jumpSize=6;strokeWidth=3;entryX=0.377;entryY=0.942;entryDx=0;entryDy=0;exitX=0;exitY=-0.135;exitDx=0;exitDy=0;exitPerimeter=0;entryPerimeter=0;" edge="1" parent="WIyWlLk6GJQsqaUBKTNV-1" source="2eaRCOAolLN9JBgcIaXe-112" target="2eaRCOAolLN9JBgcIaXe-155">
          <mxGeometry relative="1" as="geometry">
            <mxPoint x="320" y="-590" as="sourcePoint" />
            <mxPoint x="750" y="-510" as="targetPoint" />
            <Array as="points">
              <mxPoint x="360" y="-600" />
              <mxPoint x="360" y="-10" />
              <mxPoint x="-670" y="-10" />
            </Array>
          </mxGeometry>
        </mxCell>
        <mxCell id="eTFXP2I0kW7cPbEqcGvm-3" value="1" style="edgeLabel;resizable=0;html=1;align=left;verticalAlign=top;labelBackgroundColor=none;fontSize=23;" connectable="0" vertex="1" parent="eTFXP2I0kW7cPbEqcGvm-2">
          <mxGeometry x="-1" relative="1" as="geometry">
            <mxPoint x="-20" y="16" as="offset" />
          </mxGeometry>
        </mxCell>
        <mxCell id="eTFXP2I0kW7cPbEqcGvm-4" value="1" style="edgeLabel;resizable=0;html=1;align=right;verticalAlign=top;labelBackgroundColor=none;fontSize=23;" connectable="0" vertex="1" parent="eTFXP2I0kW7cPbEqcGvm-2">
          <mxGeometry x="1" relative="1" as="geometry">
            <mxPoint x="30" as="offset" />
          </mxGeometry>
        </mxCell>
        <mxCell id="eTFXP2I0kW7cPbEqcGvm-7" value="1" style="edgeLabel;resizable=0;html=1;align=left;verticalAlign=top;labelBackgroundColor=none;fontSize=23;" connectable="0" vertex="1" parent="WIyWlLk6GJQsqaUBKTNV-1">
          <mxGeometry x="465" y="-383.4999999999998" as="geometry" />
        </mxCell>
        <mxCell id="eTFXP2I0kW7cPbEqcGvm-8" value="1" style="edgeLabel;resizable=0;html=1;align=left;verticalAlign=top;labelBackgroundColor=none;fontSize=23;" connectable="0" vertex="1" parent="WIyWlLk6GJQsqaUBKTNV-1">
          <mxGeometry x="-69" y="-752.9999999999998" as="geometry" />
        </mxCell>
        <mxCell id="eTFXP2I0kW7cPbEqcGvm-9" value="&lt;font style=&quot;font-size: 12px;&quot;&gt;&lt;font style=&quot;font-size: 13px;&quot;&gt;&lt;font style=&quot;font-size: 14px;&quot;&gt;&lt;font style=&quot;font-size: 15px;&quot;&gt;&lt;font style=&quot;font-size: 16px;&quot;&gt;&lt;font style=&quot;font-size: 17px;&quot;&gt;&lt;font style=&quot;font-size: 18px;&quot;&gt;&lt;font style=&quot;font-size: 19px;&quot;&gt;&lt;font style=&quot;font-size: 20px;&quot;&gt;Composición&lt;/font&gt;&lt;/font&gt;&lt;/font&gt;&lt;/font&gt;&lt;/font&gt;&lt;/font&gt;&lt;/font&gt;&lt;/font&gt;&lt;/font&gt;" style="endArrow=open;html=1;endSize=12;startArrow=diamondThin;startSize=27;startFill=1;edgeStyle=orthogonalEdgeStyle;rounded=0;exitX=1;exitY=0.5;exitDx=0;exitDy=0;entryX=0.023;entryY=0.981;entryDx=0;entryDy=0;entryPerimeter=0;jumpSize=6;strokeWidth=3;" edge="1" parent="WIyWlLk6GJQsqaUBKTNV-1" source="2eaRCOAolLN9JBgcIaXe-149" target="2eaRCOAolLN9JBgcIaXe-206">
          <mxGeometry x="-0.5161" y="37" relative="1" as="geometry">
            <mxPoint x="-215" y="100.5" as="sourcePoint" />
            <mxPoint x="-390" y="21.5" as="targetPoint" />
            <Array as="points">
              <mxPoint x="-400" y="-523" />
              <mxPoint x="-400" y="-652" />
            </Array>
            <mxPoint as="offset" />
          </mxGeometry>
        </mxCell>
        <mxCell id="eTFXP2I0kW7cPbEqcGvm-10" value="1" style="edgeLabel;resizable=0;html=1;align=left;verticalAlign=top;labelBackgroundColor=none;fontSize=23;" connectable="0" vertex="1" parent="eTFXP2I0kW7cPbEqcGvm-9">
          <mxGeometry x="-1" relative="1" as="geometry">
            <mxPoint x="-30" y="8" as="offset" />
          </mxGeometry>
        </mxCell>
        <mxCell id="eTFXP2I0kW7cPbEqcGvm-11" value="1" style="edgeLabel;resizable=0;html=1;align=right;verticalAlign=top;labelBackgroundColor=none;fontSize=23;" connectable="0" vertex="1" parent="eTFXP2I0kW7cPbEqcGvm-9">
          <mxGeometry x="1" relative="1" as="geometry">
            <mxPoint x="-17" y="-46" as="offset" />
          </mxGeometry>
        </mxCell>
        <mxCell id="eTFXP2I0kW7cPbEqcGvm-12" value="&lt;font style=&quot;font-size: 12px;&quot;&gt;&lt;font style=&quot;font-size: 13px;&quot;&gt;&lt;font style=&quot;font-size: 14px;&quot;&gt;&lt;font style=&quot;font-size: 15px;&quot;&gt;&lt;font style=&quot;font-size: 16px;&quot;&gt;&lt;font style=&quot;font-size: 17px;&quot;&gt;&lt;font style=&quot;font-size: 18px;&quot;&gt;&lt;font style=&quot;font-size: 19px;&quot;&gt;&lt;font style=&quot;font-size: 20px;&quot;&gt;Composición&lt;/font&gt;&lt;/font&gt;&lt;/font&gt;&lt;/font&gt;&lt;/font&gt;&lt;/font&gt;&lt;/font&gt;&lt;/font&gt;&lt;/font&gt;" style="endArrow=open;html=1;endSize=12;startArrow=diamondThin;startSize=27;startFill=1;edgeStyle=orthogonalEdgeStyle;rounded=0;exitX=1;exitY=0.5;exitDx=0;exitDy=0;jumpSize=6;strokeWidth=3;" edge="1" parent="WIyWlLk6GJQsqaUBKTNV-1" source="2eaRCOAolLN9JBgcIaXe-127">
          <mxGeometry x="-0.7038" relative="1" as="geometry">
            <mxPoint x="-367" y="-520" as="sourcePoint" />
            <mxPoint x="20" y="-850" as="targetPoint" />
            <Array as="points">
              <mxPoint x="-420" y="-818" />
              <mxPoint x="-420" y="-960" />
              <mxPoint x="20" y="-960" />
            </Array>
            <mxPoint as="offset" />
          </mxGeometry>
        </mxCell>
        <mxCell id="eTFXP2I0kW7cPbEqcGvm-13" value="1" style="edgeLabel;resizable=0;html=1;align=left;verticalAlign=top;labelBackgroundColor=none;fontSize=23;" connectable="0" vertex="1" parent="eTFXP2I0kW7cPbEqcGvm-12">
          <mxGeometry x="-1" relative="1" as="geometry">
            <mxPoint x="14" y="8" as="offset" />
          </mxGeometry>
        </mxCell>
        <mxCell id="eTFXP2I0kW7cPbEqcGvm-14" value="1" style="edgeLabel;resizable=0;html=1;align=right;verticalAlign=top;labelBackgroundColor=none;fontSize=23;" connectable="0" vertex="1" parent="eTFXP2I0kW7cPbEqcGvm-12">
          <mxGeometry x="1" relative="1" as="geometry">
            <mxPoint x="30" y="-40" as="offset" />
          </mxGeometry>
        </mxCell>
        <mxCell id="eTFXP2I0kW7cPbEqcGvm-15" style="edgeStyle=orthogonalEdgeStyle;rounded=0;orthogonalLoop=1;jettySize=auto;html=1;exitX=1;exitY=0;exitDx=0;exitDy=0;endArrow=none;endFill=0;jumpSize=6;strokeWidth=3;entryX=0.5;entryY=1;entryDx=0;entryDy=0;exitPerimeter=0;" edge="1" parent="WIyWlLk6GJQsqaUBKTNV-1" source="2eaRCOAolLN9JBgcIaXe-165" target="2eaRCOAolLN9JBgcIaXe-185">
          <mxGeometry relative="1" as="geometry">
            <Array as="points">
              <mxPoint x="360" y="-720" />
              <mxPoint x="360" y="-890" />
              <mxPoint x="633" y="-890" />
            </Array>
            <mxPoint x="61" y="-671" as="sourcePoint" />
            <mxPoint x="620" y="-990" as="targetPoint" />
          </mxGeometry>
        </mxCell>
        <mxCell id="eTFXP2I0kW7cPbEqcGvm-16" style="edgeStyle=orthogonalEdgeStyle;rounded=0;orthogonalLoop=1;jettySize=auto;html=1;endArrow=none;endFill=0;jumpSize=6;strokeWidth=3;entryX=0.5;entryY=1;entryDx=0;entryDy=0;exitX=0.603;exitY=0.003;exitDx=0;exitDy=0;exitPerimeter=0;" edge="1" parent="WIyWlLk6GJQsqaUBKTNV-1" source="2eaRCOAolLN9JBgcIaXe-196" target="2eaRCOAolLN9JBgcIaXe-183">
          <mxGeometry relative="1" as="geometry">
            <Array as="points">
              <mxPoint x="-190" y="-940" />
              <mxPoint x="403" y="-940" />
            </Array>
            <mxPoint x="-190" y="-860" as="sourcePoint" />
            <mxPoint x="373" y="-1070" as="targetPoint" />
          </mxGeometry>
        </mxCell>
        <mxCell id="eTFXP2I0kW7cPbEqcGvm-17" value="ArchivoModel" style="swimlane;fontStyle=1;align=center;verticalAlign=top;childLayout=stackLayout;horizontal=1;startSize=26;horizontalStack=0;resizeParent=1;resizeParentMax=0;resizeLast=0;collapsible=1;marginBottom=0;labelBackgroundColor=none;fontSize=17;" vertex="1" parent="WIyWlLk6GJQsqaUBKTNV-1">
          <mxGeometry x="303" y="440" width="240" height="242" as="geometry" />
        </mxCell>
        <mxCell id="eTFXP2I0kW7cPbEqcGvm-18" value="+ serial: Serial" style="text;strokeColor=none;fillColor=none;align=left;verticalAlign=top;spacingLeft=4;spacingRight=4;overflow=hidden;rotatable=0;points=[[0,0.5],[1,0.5]];portConstraint=eastwest;" vertex="1" parent="eTFXP2I0kW7cPbEqcGvm-17">
          <mxGeometry y="26" width="240" height="26" as="geometry" />
        </mxCell>
        <mxCell id="eTFXP2I0kW7cPbEqcGvm-19" value="-  port: String" style="text;strokeColor=none;fillColor=none;align=left;verticalAlign=top;spacingLeft=4;spacingRight=4;overflow=hidden;rotatable=0;points=[[0,0.5],[1,0.5]];portConstraint=eastwest;" vertex="1" parent="eTFXP2I0kW7cPbEqcGvm-17">
          <mxGeometry y="52" width="240" height="26" as="geometry" />
        </mxCell>
        <mxCell id="eTFXP2I0kW7cPbEqcGvm-20" value="-  baudrate: Int" style="text;strokeColor=none;fillColor=none;align=left;verticalAlign=top;spacingLeft=4;spacingRight=4;overflow=hidden;rotatable=0;points=[[0,0.5],[1,0.5]];portConstraint=eastwest;" vertex="1" parent="eTFXP2I0kW7cPbEqcGvm-17">
          <mxGeometry y="78" width="240" height="26" as="geometry" />
        </mxCell>
        <mxCell id="eTFXP2I0kW7cPbEqcGvm-21" value="" style="line;strokeWidth=1;fillColor=none;align=left;verticalAlign=middle;spacingTop=-1;spacingLeft=3;spacingRight=3;rotatable=0;labelPosition=right;points=[];portConstraint=eastwest;strokeColor=inherit;labelBackgroundColor=none;" vertex="1" parent="eTFXP2I0kW7cPbEqcGvm-17">
          <mxGeometry y="104" width="240" height="8" as="geometry" />
        </mxCell>
        <mxCell id="eTFXP2I0kW7cPbEqcGvm-22" value="+ changePort(String): void" style="text;strokeColor=none;fillColor=none;align=left;verticalAlign=top;spacingLeft=4;spacingRight=4;overflow=hidden;rotatable=0;points=[[0,0.5],[1,0.5]];portConstraint=eastwest;" vertex="1" parent="eTFXP2I0kW7cPbEqcGvm-17">
          <mxGeometry y="112" width="240" height="26" as="geometry" />
        </mxCell>
        <mxCell id="eTFXP2I0kW7cPbEqcGvm-23" value="+ changeBaudrate(Int): void" style="text;strokeColor=none;fillColor=none;align=left;verticalAlign=top;spacingLeft=4;spacingRight=4;overflow=hidden;rotatable=0;points=[[0,0.5],[1,0.5]];portConstraint=eastwest;" vertex="1" parent="eTFXP2I0kW7cPbEqcGvm-17">
          <mxGeometry y="138" width="240" height="26" as="geometry" />
        </mxCell>
        <mxCell id="eTFXP2I0kW7cPbEqcGvm-24" value="+ connect(): void" style="text;strokeColor=none;fillColor=none;align=left;verticalAlign=top;spacingLeft=4;spacingRight=4;overflow=hidden;rotatable=0;points=[[0,0.5],[1,0.5]];portConstraint=eastwest;" vertex="1" parent="eTFXP2I0kW7cPbEqcGvm-17">
          <mxGeometry y="164" width="240" height="26" as="geometry" />
        </mxCell>
        <mxCell id="eTFXP2I0kW7cPbEqcGvm-25" value="+ disconnect(): void" style="text;strokeColor=none;fillColor=none;align=left;verticalAlign=top;spacingLeft=4;spacingRight=4;overflow=hidden;rotatable=0;points=[[0,0.5],[1,0.5]];portConstraint=eastwest;" vertex="1" parent="eTFXP2I0kW7cPbEqcGvm-17">
          <mxGeometry y="190" width="240" height="26" as="geometry" />
        </mxCell>
        <mxCell id="eTFXP2I0kW7cPbEqcGvm-26" value="+ send(): void" style="text;strokeColor=none;fillColor=none;align=left;verticalAlign=top;spacingLeft=4;spacingRight=4;overflow=hidden;rotatable=0;points=[[0,0.5],[1,0.5]];portConstraint=eastwest;" vertex="1" parent="eTFXP2I0kW7cPbEqcGvm-17">
          <mxGeometry y="216" width="240" height="26" as="geometry" />
        </mxCell>
        <mxCell id="eTFXP2I0kW7cPbEqcGvm-27" value="ArchivoController" style="swimlane;fontStyle=1;align=center;verticalAlign=top;childLayout=stackLayout;horizontal=1;startSize=26;horizontalStack=0;resizeParent=1;resizeParentMax=0;resizeLast=0;collapsible=1;marginBottom=0;labelBackgroundColor=none;fontSize=17;" vertex="1" parent="WIyWlLk6GJQsqaUBKTNV-1">
          <mxGeometry x="-480" y="-360" width="390" height="242" as="geometry" />
        </mxCell>
        <mxCell id="eTFXP2I0kW7cPbEqcGvm-28" value="+ Modelo: ArchivoModel" style="text;strokeColor=none;fillColor=none;align=left;verticalAlign=top;spacingLeft=4;spacingRight=4;overflow=hidden;rotatable=0;points=[[0,0.5],[1,0.5]];portConstraint=eastwest;" vertex="1" parent="eTFXP2I0kW7cPbEqcGvm-27">
          <mxGeometry y="26" width="390" height="26" as="geometry" />
        </mxCell>
        <mxCell id="eTFXP2I0kW7cPbEqcGvm-31" value="" style="line;strokeWidth=1;fillColor=none;align=left;verticalAlign=middle;spacingTop=-1;spacingLeft=3;spacingRight=3;rotatable=0;labelPosition=right;points=[];portConstraint=eastwest;strokeColor=inherit;labelBackgroundColor=none;" vertex="1" parent="eTFXP2I0kW7cPbEqcGvm-27">
          <mxGeometry y="52" width="390" height="8" as="geometry" />
        </mxCell>
        <mxCell id="eTFXP2I0kW7cPbEqcGvm-29" value="+ agregar_accion(String, String, String, String): void" style="text;strokeColor=none;fillColor=none;align=left;verticalAlign=top;spacingLeft=4;spacingRight=4;overflow=hidden;rotatable=0;points=[[0,0.5],[1,0.5]];portConstraint=eastwest;" vertex="1" parent="eTFXP2I0kW7cPbEqcGvm-27">
          <mxGeometry y="60" width="390" height="26" as="geometry" />
        </mxCell>
        <mxCell id="eTFXP2I0kW7cPbEqcGvm-30" value="+ agregar_conection(String, String): void" style="text;strokeColor=none;fillColor=none;align=left;verticalAlign=top;spacingLeft=4;spacingRight=4;overflow=hidden;rotatable=0;points=[[0,0.5],[1,0.5]];portConstraint=eastwest;" vertex="1" parent="eTFXP2I0kW7cPbEqcGvm-27">
          <mxGeometry y="86" width="390" height="26" as="geometry" />
        </mxCell>
        <mxCell id="eTFXP2I0kW7cPbEqcGvm-32" value="+ agregar_usuario(String, String, String): void" style="text;strokeColor=none;fillColor=none;align=left;verticalAlign=top;spacingLeft=4;spacingRight=4;overflow=hidden;rotatable=0;points=[[0,0.5],[1,0.5]];portConstraint=eastwest;" vertex="1" parent="eTFXP2I0kW7cPbEqcGvm-27">
          <mxGeometry y="112" width="390" height="26" as="geometry" />
        </mxCell>
        <mxCell id="eTFXP2I0kW7cPbEqcGvm-33" value="+ guardar_registro(String): void" style="text;strokeColor=none;fillColor=none;align=left;verticalAlign=top;spacingLeft=4;spacingRight=4;overflow=hidden;rotatable=0;points=[[0,0.5],[1,0.5]];portConstraint=eastwest;" vertex="1" parent="eTFXP2I0kW7cPbEqcGvm-27">
          <mxGeometry y="138" width="390" height="26" as="geometry" />
        </mxCell>
        <mxCell id="eTFXP2I0kW7cPbEqcGvm-34" value="+ leer_xml(String, String): List" style="text;strokeColor=none;fillColor=none;align=left;verticalAlign=top;spacingLeft=4;spacingRight=4;overflow=hidden;rotatable=0;points=[[0,0.5],[1,0.5]];portConstraint=eastwest;" vertex="1" parent="eTFXP2I0kW7cPbEqcGvm-27">
          <mxGeometry y="164" width="390" height="26" as="geometry" />
        </mxCell>
        <mxCell id="eTFXP2I0kW7cPbEqcGvm-35" value="+ registros(String): List" style="text;strokeColor=none;fillColor=none;align=left;verticalAlign=top;spacingLeft=4;spacingRight=4;overflow=hidden;rotatable=0;points=[[0,0.5],[1,0.5]];portConstraint=eastwest;" vertex="1" parent="eTFXP2I0kW7cPbEqcGvm-27">
          <mxGeometry y="190" width="390" height="26" as="geometry" />
        </mxCell>
        <mxCell id="eTFXP2I0kW7cPbEqcGvm-36" value="+ leerBinaryXml(String): List" style="text;strokeColor=none;fillColor=none;align=left;verticalAlign=top;spacingLeft=4;spacingRight=4;overflow=hidden;rotatable=0;points=[[0,0.5],[1,0.5]];portConstraint=eastwest;" vertex="1" parent="eTFXP2I0kW7cPbEqcGvm-27">
          <mxGeometry y="216" width="390" height="26" as="geometry" />
        </mxCell>
        <mxCell id="eTFXP2I0kW7cPbEqcGvm-51" value="&lt;font style=&quot;font-size: 12px;&quot;&gt;&lt;font style=&quot;font-size: 13px;&quot;&gt;&lt;font style=&quot;font-size: 14px;&quot;&gt;&lt;font style=&quot;font-size: 15px;&quot;&gt;&lt;font style=&quot;font-size: 16px;&quot;&gt;&lt;font style=&quot;font-size: 17px;&quot;&gt;&lt;font style=&quot;font-size: 18px;&quot;&gt;&lt;font style=&quot;font-size: 19px;&quot;&gt;&lt;font style=&quot;font-size: 20px;&quot;&gt;Composición&lt;/font&gt;&lt;/font&gt;&lt;/font&gt;&lt;/font&gt;&lt;/font&gt;&lt;/font&gt;&lt;/font&gt;&lt;/font&gt;&lt;/font&gt;" style="endArrow=open;html=1;endSize=12;startArrow=diamondThin;startSize=27;startFill=1;edgeStyle=orthogonalEdgeStyle;rounded=0;exitX=0;exitY=0.5;exitDx=0;exitDy=0;jumpSize=6;strokeWidth=3;entryX=0.75;entryY=0;entryDx=0;entryDy=0;" edge="1" parent="WIyWlLk6GJQsqaUBKTNV-1">
          <mxGeometry x="-0.0984" relative="1" as="geometry">
            <mxPoint x="-9" y="-465.0000000000002" as="sourcePoint" />
            <mxPoint x="-239" y="-360" as="targetPoint" />
            <Array as="points" />
            <mxPoint as="offset" />
          </mxGeometry>
        </mxCell>
        <mxCell id="eTFXP2I0kW7cPbEqcGvm-52" value="1" style="edgeLabel;resizable=0;html=1;align=left;verticalAlign=top;labelBackgroundColor=none;fontSize=23;" connectable="0" vertex="1" parent="eTFXP2I0kW7cPbEqcGvm-51">
          <mxGeometry x="-1" relative="1" as="geometry">
            <mxPoint x="-30" y="8" as="offset" />
          </mxGeometry>
        </mxCell>
        <mxCell id="eTFXP2I0kW7cPbEqcGvm-53" value="1" style="edgeLabel;resizable=0;html=1;align=right;verticalAlign=top;labelBackgroundColor=none;fontSize=23;" connectable="0" vertex="1" parent="eTFXP2I0kW7cPbEqcGvm-51">
          <mxGeometry x="1" relative="1" as="geometry">
            <mxPoint x="-11" y="-33" as="offset" />
          </mxGeometry>
        </mxCell>
        <mxCell id="eTFXP2I0kW7cPbEqcGvm-55" value="&lt;font style=&quot;font-size: 12px;&quot;&gt;&lt;font style=&quot;font-size: 13px;&quot;&gt;&lt;font style=&quot;font-size: 14px;&quot;&gt;&lt;font style=&quot;font-size: 15px;&quot;&gt;&lt;font style=&quot;font-size: 16px;&quot;&gt;&lt;font style=&quot;font-size: 17px;&quot;&gt;&lt;font style=&quot;font-size: 18px;&quot;&gt;&lt;font style=&quot;font-size: 19px;&quot;&gt;&lt;font style=&quot;font-size: 20px;&quot;&gt;Composición&lt;/font&gt;&lt;/font&gt;&lt;/font&gt;&lt;/font&gt;&lt;/font&gt;&lt;/font&gt;&lt;/font&gt;&lt;/font&gt;&lt;/font&gt;" style="endArrow=open;html=1;endSize=12;startArrow=diamondThin;startSize=27;startFill=1;edgeStyle=orthogonalEdgeStyle;rounded=0;jumpSize=6;strokeWidth=3;entryX=0.371;entryY=0.553;entryDx=0;entryDy=0;entryPerimeter=0;" edge="1" parent="WIyWlLk6GJQsqaUBKTNV-1">
          <mxGeometry x="0.0171" y="20" relative="1" as="geometry">
            <mxPoint x="-370" y="-520" as="sourcePoint" />
            <mxPoint x="-367.077" y="-359.90549999999985" as="targetPoint" />
            <Array as="points">
              <mxPoint x="-370" y="-440" />
              <mxPoint x="-367" y="-440" />
            </Array>
            <mxPoint x="-3" y="-10" as="offset" />
          </mxGeometry>
        </mxCell>
        <mxCell id="eTFXP2I0kW7cPbEqcGvm-56" value="1" style="edgeLabel;resizable=0;html=1;align=left;verticalAlign=top;labelBackgroundColor=none;fontSize=23;" connectable="0" vertex="1" parent="eTFXP2I0kW7cPbEqcGvm-55">
          <mxGeometry x="-1" relative="1" as="geometry">
            <mxPoint x="-30" y="8" as="offset" />
          </mxGeometry>
        </mxCell>
        <mxCell id="eTFXP2I0kW7cPbEqcGvm-57" value="1" style="edgeLabel;resizable=0;html=1;align=right;verticalAlign=top;labelBackgroundColor=none;fontSize=23;" connectable="0" vertex="1" parent="eTFXP2I0kW7cPbEqcGvm-55">
          <mxGeometry x="1" relative="1" as="geometry">
            <mxPoint x="-11" y="-33" as="offset" />
          </mxGeometry>
        </mxCell>
        <mxCell id="eTFXP2I0kW7cPbEqcGvm-58" value="1" style="edgeLabel;resizable=0;html=1;align=left;verticalAlign=top;labelBackgroundColor=none;fontSize=23;" connectable="0" vertex="1" parent="WIyWlLk6GJQsqaUBKTNV-1">
          <mxGeometry x="-117" y="-522.0000000000002" as="geometry" />
        </mxCell>
        <mxCell id="eTFXP2I0kW7cPbEqcGvm-59" value="&lt;font style=&quot;font-size: 12px;&quot;&gt;&lt;font style=&quot;font-size: 13px;&quot;&gt;&lt;font style=&quot;font-size: 14px;&quot;&gt;&lt;font style=&quot;font-size: 15px;&quot;&gt;&lt;font style=&quot;font-size: 16px;&quot;&gt;&lt;font style=&quot;font-size: 17px;&quot;&gt;&lt;font style=&quot;font-size: 18px;&quot;&gt;&lt;font style=&quot;font-size: 19px;&quot;&gt;&lt;font style=&quot;font-size: 20px;&quot;&gt;Composición&lt;/font&gt;&lt;/font&gt;&lt;/font&gt;&lt;/font&gt;&lt;/font&gt;&lt;/font&gt;&lt;/font&gt;&lt;/font&gt;&lt;/font&gt;" style="endArrow=open;html=1;endSize=12;startArrow=diamondThin;startSize=27;startFill=1;edgeStyle=orthogonalEdgeStyle;rounded=0;exitX=1;exitY=0.5;exitDx=0;exitDy=0;jumpSize=6;strokeWidth=3;entryX=0.5;entryY=0;entryDx=0;entryDy=0;" edge="1" parent="WIyWlLk6GJQsqaUBKTNV-1" source="eTFXP2I0kW7cPbEqcGvm-30" target="eTFXP2I0kW7cPbEqcGvm-17">
          <mxGeometry x="-0.3973" relative="1" as="geometry">
            <mxPoint x="690" y="40" as="sourcePoint" />
            <mxPoint x="430" y="145" as="targetPoint" />
            <Array as="points" />
            <mxPoint as="offset" />
          </mxGeometry>
        </mxCell>
        <mxCell id="eTFXP2I0kW7cPbEqcGvm-60" value="1" style="edgeLabel;resizable=0;html=1;align=left;verticalAlign=top;labelBackgroundColor=none;fontSize=23;" connectable="0" vertex="1" parent="eTFXP2I0kW7cPbEqcGvm-59">
          <mxGeometry x="-1" relative="1" as="geometry">
            <mxPoint x="8" y="8" as="offset" />
          </mxGeometry>
        </mxCell>
        <mxCell id="eTFXP2I0kW7cPbEqcGvm-61" value="1" style="edgeLabel;resizable=0;html=1;align=right;verticalAlign=top;labelBackgroundColor=none;fontSize=23;" connectable="0" vertex="1" parent="eTFXP2I0kW7cPbEqcGvm-59">
          <mxGeometry x="1" relative="1" as="geometry">
            <mxPoint x="-11" y="-33" as="offset" />
          </mxGeometry>
        </mxCell>
        <mxCell id="eTFXP2I0kW7cPbEqcGvm-62" style="edgeStyle=orthogonalEdgeStyle;rounded=0;orthogonalLoop=1;jettySize=auto;html=1;entryX=0;entryY=0.863;entryDx=0;entryDy=0;entryPerimeter=0;endArrow=none;endFill=0;jumpSize=6;strokeWidth=3;" edge="1" parent="WIyWlLk6GJQsqaUBKTNV-1" source="2eaRCOAolLN9JBgcIaXe-43" target="2eaRCOAolLN9JBgcIaXe-54">
          <mxGeometry relative="1" as="geometry">
            <Array as="points">
              <mxPoint x="-290" y="220" />
            </Array>
            <mxPoint x="44" y="316.96000000000004" as="sourcePoint" />
            <mxPoint x="42" y="157.96" as="targetPoint" />
          </mxGeometry>
        </mxCell>
        <mxCell id="eTFXP2I0kW7cPbEqcGvm-63" value="1" style="edgeLabel;resizable=0;html=1;align=left;verticalAlign=top;labelBackgroundColor=none;fontSize=23;" connectable="0" vertex="1" parent="WIyWlLk6GJQsqaUBKTNV-1">
          <mxGeometry x="220" y="900" as="geometry" />
        </mxCell>
        <mxCell id="eTFXP2I0kW7cPbEqcGvm-64" value="&lt;font style=&quot;font-size: 25px;&quot;&gt;Element Tree&lt;/font&gt;" style="shape=folder;fontStyle=1;spacingTop=10;tabWidth=40;tabHeight=14;tabPosition=left;html=1;verticalAlign=top;" vertex="1" parent="WIyWlLk6GJQsqaUBKTNV-1">
          <mxGeometry x="548" y="110" width="170" height="91" as="geometry" />
        </mxCell>
        <mxCell id="eTFXP2I0kW7cPbEqcGvm-65" style="edgeStyle=orthogonalEdgeStyle;rounded=0;orthogonalLoop=1;jettySize=auto;html=1;entryX=0;entryY=0;entryDx=0;entryDy=71.75;entryPerimeter=0;endArrow=none;endFill=0;jumpSize=6;strokeWidth=3;exitX=0.821;exitY=0;exitDx=0;exitDy=0;exitPerimeter=0;" edge="1" parent="WIyWlLk6GJQsqaUBKTNV-1" source="eTFXP2I0kW7cPbEqcGvm-17" target="eTFXP2I0kW7cPbEqcGvm-64">
          <mxGeometry relative="1" as="geometry">
            <Array as="points">
              <mxPoint x="500" y="182" />
            </Array>
            <mxPoint x="-280" y="337" as="sourcePoint" />
            <mxPoint x="52" y="230" as="targetPoint" />
          </mxGeometry>
        </mxCell>
        <mxCell id="eTFXP2I0kW7cPbEqcGvm-66" style="edgeStyle=orthogonalEdgeStyle;rounded=0;orthogonalLoop=1;jettySize=auto;html=1;entryX=0;entryY=0;entryDx=0;entryDy=33.25;entryPerimeter=0;endArrow=none;endFill=0;jumpSize=6;strokeWidth=3;exitX=0.003;exitY=-0.154;exitDx=0;exitDy=0;exitPerimeter=0;" edge="1" parent="WIyWlLk6GJQsqaUBKTNV-1" source="2eaRCOAolLN9JBgcIaXe-204" target="2eaRCOAolLN9JBgcIaXe-62">
          <mxGeometry relative="1" as="geometry">
            <Array as="points">
              <mxPoint x="-440" y="-760" />
              <mxPoint x="-440" y="-470" />
              <mxPoint x="-490" y="-470" />
              <mxPoint x="-490" y="-300" />
              <mxPoint x="-570" y="-300" />
              <mxPoint x="-570" y="143" />
            </Array>
            <mxPoint x="-280" y="150" as="sourcePoint" />
            <mxPoint x="52" y="230" as="targetPoint" />
          </mxGeometry>
        </mxCell>
        <mxCell id="eTFXP2I0kW7cPbEqcGvm-68" style="edgeStyle=orthogonalEdgeStyle;rounded=0;orthogonalLoop=1;jettySize=auto;html=1;entryX=0;entryY=0;entryDx=0;entryDy=30.5;entryPerimeter=0;endArrow=none;endFill=0;jumpSize=6;strokeWidth=3;" edge="1" parent="WIyWlLk6GJQsqaUBKTNV-1" source="2eaRCOAolLN9JBgcIaXe-155" target="2eaRCOAolLN9JBgcIaXe-54">
          <mxGeometry relative="1" as="geometry">
            <Array as="points">
              <mxPoint x="-610" y="-70" />
              <mxPoint x="-280" y="-70" />
              <mxPoint x="-280" y="182" />
            </Array>
            <mxPoint x="-610" y="-320" as="sourcePoint" />
            <mxPoint x="52" y="230" as="targetPoint" />
          </mxGeometry>
        </mxCell>
      </root>
    </mxGraphModel>
  </diagram>
</mxfile>
